<?xml version="1.0" encoding="UTF-8"?>
<svg xmlns="http://www.w3.org/2000/svg" width="1024" height="407" viewBox="0 0 1024 407" role="img" aria-label="Luneya logo vector">
  <title>Luneya logo vector</title>
  <path d="M 437.25 165 L 435 167.25 L 435 169.5 L 436.25 170.75 L 438.5 170.75 L 439.25 171.75 L 443.5 171.75 L 444.25 172.75 L 446.5 172.75 L 448 174.25 L 448 175.5 L 449 176.25 L 449 265.5 L 450 266.25 L 450 270.5 L 451 271.25 L 451 273.5 L 452 274.25 L 452 275.5 L 454 277.25 L 454 278.5 L 457 281.25 L 457 282.5 L 458.5 282.75 L 461.25 285.75 L 462.5 285.75 L 463.25 286.75 L 464.5 286.75 L 465.25 287.75 L 466.5 287.75 L 467.25 288.75 L 471.5 288.75 L 472.25 289.75 L 479.5 289.75 L 480.25 288.75 L 484.5 288.75 L 485.25 287.75 L 487.5 287.75 L 488.25 286.75 L 489.5 286.75 L 490.25 285.75 L 491.5 285.75 L 492.25 284.75 L 493.5 284.75 L 494.25 283.75 L 495.5 283.75 L 497.25 281.75 L 498.5 281.75 L 499.25 280.75 L 500.5 280.75 L 506.25 274.75 L 507.5 274.75 L 509.25 272.75 L 510.5 272.75 L 511.25 271.75 L 512.5 271.75 L 513.25 270.75 L 514.5 270.75 L 515 271.25 L 515 273.5 L 516 274.25 L 516 279.5 L 515.5 280 L 513.25 280 L 512.5 281 L 508.25 281 L 507.5 282 L 505.25 282 L 504 283.25 L 504 287.5 L 504.25 287.75 L 540.5 287.75 L 541.75 286.5 L 541.75 284.25 L 539.5 282 L 536.25 282 L 535.5 281 L 532.25 281 L 531.5 280 L 530.25 280 L 528.75 278.5 L 528.75 277.25 L 527.75 276.5 L 527.75 274.25 L 526.75 273.5 L 526.75 168.25 L 523.5 165 L 497.25 165 L 495 167.25 L 495 169.5 L 496.25 170.75 L 498.5 170.75 L 499.25 171.75 L 503.5 171.75 L 504.25 172.75 L 505.5 172.75 L 508 175.25 L 508 177.5 L 509 178.25 L 509 251.5 L 508 252.25 L 508 257.5 L 507 258.25 L 507 260.5 L 506 261.25 L 506 263.5 L 504 265.25 L 504 266.5 L 503 267.25 L 503 268.5 L 497.5 274 L 496.25 274 L 494.5 276 L 493.25 276 L 492.5 277 L 489.25 277 L 488.5 278 L 478.25 278 L 477.5 277 L 476.25 277 L 475.5 276 L 474.25 276 L 469.75 271.5 L 469.75 270.25 L 468.75 269.5 L 468.75 268.25 L 467.75 267.5 L 467.75 265.25 L 466.75 264.5 L 466.75 168.25 L 463.5 165 Z
M 940.5 164 L 938.25 164 L 937.5 165 L 936.25 165 L 929.5 172 L 927.25 172 L 922.5 167 L 921.25 167 L 920.5 166 L 919.25 166 L 918.5 165 L 916.25 165 L 915.5 164 L 904.25 164 L 903.5 165 L 900.25 165 L 899.5 166 L 897.25 166 L 896.5 167 L 894.25 167 L 892.5 169 L 891.25 169 L 890.5 170 L 889.25 170 L 888.5 171 L 887.25 171 L 885.5 173 L 884.25 173 L 881.5 176 L 880.25 176 L 868 188.25 L 868 189.5 L 864 193.25 L 864 194.5 L 862 196.25 L 862 197.5 L 860 199.25 L 860 200.5 L 858 202.25 L 858 203.5 L 857 204.25 L 857 205.5 L 856 206.25 L 856 207.5 L 854 209.25 L 854 210.5 L 853 211.25 L 853 212.5 L 852 213.25 L 852 214.5 L 851 215.25 L 851 216.5 L 850 217.25 L 850 219.5 L 849 220.25 L 849 221.5 L 848 222.25 L 848 224.5 L 847 225.25 L 847 227.5 L 846 228.25 L 846 229.5 L 845 230.25 L 845 233.5 L 844 234.25 L 844 236.5 L 843 237.25 L 843 240.5 L 842 241.25 L 842 245.5 L 841 246.25 L 841 252.5 L 840 253.25 L 840 269.5 L 841 270.25 L 841 273.5 L 842 274.25 L 842 276.5 L 843 277.25 L 843 279.5 L 845 281.25 L 845 282.5 L 849.25 286.75 L 850.5 286.75 L 852.25 288.75 L 855.5 288.75 L 856.25 289.75 L 864.5 289.75 L 865.25 288.75 L 867.5 288.75 L 868.25 287.75 L 870.5 287.75 L 872.25 285.75 L 873.5 285.75 L 875.25 283.75 L 876.5 283.75 L 888.75 271.5 L 888.75 270.25 L 891.75 267.5 L 891.75 266.25 L 893.75 264.5 L 893.75 263.25 L 895.75 261.5 L 895.75 260.25 L 897.75 258.5 L 897.75 257.25 L 899.75 255.5 L 899.75 254.25 L 900.75 253.5 L 900.75 252.25 L 902.75 250.5 L 902.75 249.25 L 903.75 248.5 L 903.75 247.25 L 904.25 246.75 L 905.5 246.75 L 906 247.25 L 906 249.5 L 905 250.25 L 905 254.5 L 904 255.25 L 904 259.5 L 903 260.25 L 903 277.5 L 904 278.25 L 904 280.5 L 905 281.25 L 905 282.5 L 910.25 287.75 L 911.5 287.75 L 912.25 288.75 L 914.5 288.75 L 915.25 289.75 L 921.5 289.75 L 922.25 288.75 L 925.5 288.75 L 926.25 287.75 L 927.5 287.75 L 928.25 286.75 L 929.5 286.75 L 931.25 284.75 L 932.5 284.75 L 935.75 281.5 L 935.75 280.25 L 938.75 277.5 L 938.75 276.25 L 940.75 274.5 L 940.75 273.25 L 941.75 272.5 L 941.75 271.25 L 942.75 270.5 L 942.75 268.25 L 943.75 267.5 L 943.75 266.25 L 944.75 265.5 L 944.75 264.25 L 945.75 263.5 L 945.75 261.25 L 946.75 260.5 L 946.75 258.25 L 947.75 257.5 L 947.75 255.25 L 948.75 254.5 L 948.75 251.25 L 949.75 250.5 L 949.75 244.25 L 948.5 243 L 945.25 243 L 944 244.25 L 944 246.5 L 943 247.25 L 943 250.5 L 942 251.25 L 942 252.5 L 941 253.25 L 941 255.5 L 940 256.25 L 940 258.5 L 939 259.25 L 939 260.5 L 938 261.25 L 938 262.5 L 937 263.25 L 937 264.5 L 936 265.25 L 936 266.5 L 935 267.25 L 935 268.5 L 932 271.25 L 932 272.5 L 930.5 274 L 929.25 274 L 928.5 275 L 927.25 275 L 926.5 276 L 924.25 276 L 923.5 275 L 922.25 275 L 920.75 273.5 L 920.75 272.25 L 919.75 271.5 L 919.75 263.25 L 920.75 262.5 L 920.75 258.25 L 921.75 257.5 L 921.75 252.25 L 922.75 251.5 L 922.75 247.25 L 923.75 246.5 L 923.75 243.25 L 924.75 242.5 L 924.75 238.25 L 925.75 237.5 L 925.75 235.25 L 926.75 234.5 L 926.75 230.25 L 927.75 229.5 L 927.75 226.25 L 928.75 225.5 L 928.75 222.25 L 929.75 221.5 L 929.75 218.25 L 930.75 217.5 L 930.75 214.25 L 931.75 213.5 L 931.75 210.25 L 932.75 209.5 L 932.75 206.25 L 933.75 205.5 L 933.75 202.25 L 934.75 201.5 L 934.75 198.25 L 935.75 197.5 L 935.75 193.25 L 936.75 192.5 L 936.75 189.25 L 937.75 188.5 L 937.75 185.25 L 938.75 184.5 L 938.75 181.25 L 939.75 180.5 L 939.75 177.25 L 940.75 176.5 L 940.75 172.25 L 941.75 171.5 L 941.75 168.25 L 942.75 167.5 L 942.75 166.25 Z
M 913.5 170.75 L 917 174.25 L 917 175.5 L 918 176.25 L 918 178.5 L 919 179.25 L 919 189.5 L 918 190.25 L 918 195.5 L 917 196.25 L 917 200.5 L 916 201.25 L 916 203.5 L 915 204.25 L 915 207.5 L 914 208.25 L 914 210.5 L 913 211.25 L 913 213.5 L 912 214.25 L 912 215.5 L 911 216.25 L 911 218.5 L 910 219.25 L 910 220.5 L 909 221.25 L 909 223.5 L 908 224.25 L 908 225.5 L 907 226.25 L 907 227.5 L 906 228.25 L 906 229.5 L 905 230.25 L 905 232.5 L 904 233.25 L 904 234.5 L 903 235.25 L 903 236.5 L 902 237.25 L 902 238.5 L 901 239.25 L 901 240.5 L 900 241.25 L 900 242.5 L 898 244.25 L 898 245.5 L 897 246.25 L 897 247.5 L 895 249.25 L 895 250.5 L 894 251.25 L 894 252.5 L 892 254.25 L 892 255.5 L 890 257.25 L 890 258.5 L 887 261.25 L 887 262.5 L 881 268.25 L 881 269.5 L 879.5 271 L 878.25 271 L 874.5 275 L 873.25 275 L 872.5 276 L 871.25 276 L 870.5 277 L 863.25 277 L 860.75 274.5 L 860.75 273.25 L 859.75 272.5 L 859.75 271.25 L 858.75 270.5 L 858.75 251.25 L 859.75 250.5 L 859.75 246.25 L 860.75 245.5 L 860.75 241.25 L 861.75 240.5 L 861.75 237.25 L 862.75 236.5 L 862.75 233.25 L 863.75 232.5 L 863.75 230.25 L 864.75 229.5 L 864.75 227.25 L 865.75 226.5 L 865.75 224.25 L 866.75 223.5 L 866.75 221.25 L 867.75 220.5 L 867.75 218.25 L 868.75 217.5 L 868.75 216.25 L 869.75 215.5 L 869.75 213.25 L 870.75 212.5 L 870.75 211.25 L 871.75 210.5 L 871.75 209.25 L 872.75 208.5 L 872.75 206.25 L 873.75 205.5 L 873.75 204.25 L 874.75 203.5 L 874.75 202.25 L 875.75 201.5 L 875.75 200.25 L 877.75 198.5 L 877.75 197.25 L 878.75 196.5 L 878.75 195.25 L 880.75 193.5 L 880.75 192.25 L 881.75 191.5 L 881.75 190.25 L 884.75 187.5 L 884.75 186.25 L 888.75 182.5 L 888.75 181.25 L 892.25 177.75 L 893.5 177.75 L 897.25 173.75 L 898.5 173.75 L 899.25 172.75 L 900.5 172.75 L 901.25 171.75 L 903.5 171.75 L 904.25 170.75 Z
M 697.25 164 L 696.5 165 L 694.25 165 L 693.5 166 L 691.25 166 L 690.5 167 L 689.25 167 L 687.5 169 L 686.25 169 L 685.5 170 L 684.25 170 L 675 179.25 L 675 180.5 L 672 183.25 L 672 184.5 L 671 185.25 L 671 186.5 L 669 188.25 L 669 190.5 L 668 191.25 L 668 192.5 L 667 193.25 L 667 194.5 L 666 195.25 L 666 197.5 L 665 198.25 L 665 200.5 L 664 201.25 L 664 203.5 L 663 204.25 L 663 208.5 L 662 209.25 L 662 214.5 L 661 215.25 L 661 240.5 L 662 241.25 L 662 246.5 L 663 247.25 L 663 251.5 L 664 252.25 L 664 255.5 L 665 256.25 L 665 258.5 L 666 259.25 L 666 260.5 L 667 261.25 L 667 263.5 L 668 264.25 L 668 265.5 L 669 266.25 L 669 267.5 L 671 269.25 L 671 270.5 L 672 271.25 L 672 272.5 L 675 275.25 L 675 276.5 L 680.25 281.75 L 681.5 281.75 L 684.25 284.75 L 685.5 284.75 L 686.25 285.75 L 687.5 285.75 L 688.25 286.75 L 689.5 286.75 L 690.25 287.75 L 691.5 287.75 L 692.25 288.75 L 695.5 288.75 L 696.25 289.75 L 708.5 289.75 L 709.25 288.75 L 711.5 288.75 L 712.25 287.75 L 714.5 287.75 L 715.25 286.75 L 716.5 286.75 L 718.25 284.75 L 719.5 284.75 L 727.75 276.5 L 727.75 275.25 L 729.75 273.5 L 729.75 272.25 L 730.75 271.5 L 730.75 270.25 L 731.75 269.5 L 731.75 268.25 L 732.75 267.5 L 732.75 266.25 L 733.75 265.5 L 733.75 264.25 L 734.75 263.5 L 734.75 261.25 L 735.75 260.5 L 735.75 257.25 L 736.75 256.5 L 736.75 250.25 L 737.75 249.25 L 736.75 248.5 L 736.75 247.25 L 735.25 247 L 734.5 246 L 733.5 247 L 732 247.25 L 732 248.5 L 731 249.25 L 731 252.5 L 730 253.25 L 730 255.5 L 729 256.25 L 729 258.5 L 728 259.25 L 728 261.5 L 726 263.25 L 726 264.5 L 725 265.25 L 725 266.5 L 723 268.25 L 723 269.5 L 722.5 270 L 721 270.25 L 721 271.5 L 720.5 272 L 719.25 272 L 717.5 274 L 716.25 274 L 715.5 275 L 714.25 275 L 713.5 276 L 710.25 276 L 709.5 277 L 705.25 277 L 704.5 276 L 701.25 276 L 700.5 275 L 699.25 275 L 698.5 274 L 697.25 274 L 694.5 271 L 693.25 271 L 691.75 269.5 L 691.75 268.25 L 688.75 265.5 L 688.75 264.25 L 686.75 262.5 L 686.75 261.25 L 685.75 260.5 L 685.75 258.25 L 684.75 257.5 L 684.75 256.25 L 683.75 255.5 L 683.75 252.25 L 682.75 251.5 L 682.75 249.25 L 681.75 248.5 L 681.75 243.25 L 680.75 242.5 L 680.75 235.25 L 679.75 234.5 L 679.75 223.25 L 681.25 221.75 L 687.5 221.75 L 688.25 222.75 L 689.25 221.75 L 693.5 221.75 L 694.25 222.75 L 699.5 222.75 L 700.25 221.75 L 732.5 221.75 L 733.25 220.75 L 734.5 220.75 L 736.75 218.5 L 736.75 216.25 L 737.75 215.5 L 737.75 196.25 L 736.75 195.5 L 736.75 192.25 L 735.75 191.5 L 735.75 188.25 L 734.75 187.5 L 734.75 185.25 L 733.75 184.5 L 733.75 183.25 L 732.75 182.5 L 732.75 181.25 L 731.75 180.5 L 731.75 179.25 L 728.75 176.5 L 728.75 175.25 L 723.5 170 L 722.25 170 L 720.5 168 L 719.25 168 L 718.5 167 L 717.25 167 L 716.5 166 L 715.25 166 L 714.5 165 L 712.25 165 L 711.5 164 Z
M 710.5 171.75 L 715 176.25 L 715 177.5 L 716 178.25 L 716 179.5 L 717 180.25 L 717 182.5 L 718 183.25 L 718 186.5 L 719 187.25 L 719 194.5 L 720 195.25 L 720 204.5 L 719 205.25 L 719 207.5 L 718 208.25 L 718 209.5 L 714.5 213 L 713.25 213 L 712.5 214 L 680.25 214 L 679.75 213.5 L 679.75 212.25 L 680.75 211.5 L 680.75 202.25 L 681.75 201.5 L 681.75 197.25 L 682.75 196.5 L 682.75 193.25 L 683.75 192.5 L 683.75 189.25 L 684.75 188.5 L 684.75 187.25 L 685.75 186.5 L 685.75 185.25 L 686.75 184.5 L 686.75 183.25 L 687.75 182.5 L 687.75 181.25 L 688.75 180.5 L 688.75 179.25 L 695.25 172.75 L 696.5 172.75 L 697.25 171.75 L 698.5 171.75 L 699.25 170.75 L 702.5 170.75 L 703.25 169.75 L 704.5 169.75 L 705.25 170.75 L 708.5 170.75 L 709.25 171.75 Z
M 628.5 166 L 627.25 166 L 626.5 165 L 623.25 165 L 622.5 164 L 608.25 164 L 607.5 165 L 605.25 165 L 604.5 166 L 602.25 166 L 601.5 167 L 600.25 167 L 599.5 168 L 598.25 168 L 596.5 170 L 595.25 170 L 594.5 171 L 593.25 171 L 590.5 174 L 589.25 174 L 585.5 178 L 584.25 178 L 580.5 182 L 579.25 182 L 578.75 181.5 L 578.75 169.25 L 577.75 168.5 L 577.75 166.25 L 576.5 165 L 574.25 165 L 571.5 168 L 570.25 168 L 568.5 170 L 567.25 170 L 565.5 172 L 564.25 172 L 563.5 173 L 562.25 173 L 561.5 174 L 560.25 174 L 559.5 175 L 557.25 175 L 556.5 176 L 553.25 176 L 552.5 177 L 550.25 177 L 549 178.25 L 549 179.5 L 548 180.5 L 549.25 181.75 L 550.5 181.75 L 551.25 182.75 L 557.5 182.75 L 562 187.25 L 562 190.5 L 563 191.25 L 563 272.5 L 562 273.25 L 562 276.5 L 561 277.25 L 561 278.5 L 559.5 280 L 558.25 280 L 557.5 281 L 556.25 281 L 555.5 282 L 552.25 282 L 551.5 283 L 550 283.25 L 550 286.5 L 551.25 287.75 L 595.5 287.75 L 596.75 286.5 L 596.75 283.25 L 596.5 283 L 595.25 283 L 594.5 282 L 590.25 282 L 589.5 281 L 586.25 281 L 585.5 280 L 584.25 280 L 582.75 278.5 L 582.75 277.25 L 581.75 276.5 L 581.75 275.25 L 580.75 274.5 L 580.75 201.25 L 581.75 200.5 L 581.75 196.25 L 582.75 195.5 L 582.75 193.25 L 583.75 192.5 L 583.75 191.25 L 584.75 190.5 L 584.75 189.25 L 585.75 188.5 L 585.75 187.25 L 592.25 180.75 L 593.5 180.75 L 595.25 178.75 L 596.5 178.75 L 598.25 176.75 L 600.5 176.75 L 601.25 175.75 L 605.5 175.75 L 606.25 174.75 L 611.5 174.75 L 612.25 175.75 L 614.5 175.75 L 615.25 176.75 L 616.5 176.75 L 617.25 177.75 L 618.5 177.75 L 621 180.25 L 621 181.5 L 623 183.25 L 623 185.5 L 624 186.25 L 624 189.5 L 625 190.25 L 625 273.5 L 624 274.25 L 624 276.5 L 623 277.25 L 623 278.5 L 621.5 280 L 620.25 280 L 619.5 281 L 617.25 281 L 616.5 282 L 613.25 282 L 611 284.25 L 611 286.5 L 612.25 287.75 L 656.5 287.75 L 657.75 286.5 L 657.75 283.25 L 656.5 282 L 651.25 282 L 650.5 281 L 648.25 281 L 647.5 280 L 646.25 280 L 644.75 278.5 L 644.75 277.25 L 643.75 276.5 L 643.75 274.25 L 642.75 273.5 L 642.75 193.25 L 641.75 192.5 L 641.75 184.25 L 640.75 183.5 L 640.75 181.25 L 639.75 180.5 L 639.75 178.25 L 638.75 177.5 L 638.75 176.25 L 637.75 175.5 L 637.75 174.25 L 631.5 168 L 630.25 168 Z
M 830.5 164 L 827.25 164 L 826.5 163 L 825.5 164 L 823.25 164 L 822.5 165 L 821.25 165 L 820 166.25 L 820 167.5 L 819 168.25 L 819 169.5 L 818 170.25 L 818 178.5 L 819 179.25 L 819 180.5 L 820 181.25 L 820 182.5 L 822 184.25 L 822 185.5 L 824 187.25 L 824 189.5 L 825 190.25 L 825 192.5 L 826 193.25 L 826 199.5 L 827 200.25 L 827 209.5 L 826 210.25 L 826 219.5 L 825 220.25 L 825 223.5 L 824 224.25 L 824 227.5 L 823 228.25 L 823 231.5 L 822 232.25 L 822 234.5 L 821 235.25 L 821 237.5 L 820 238.25 L 820 240.5 L 819 241.25 L 819 242.5 L 818 243.25 L 818 245.5 L 817 246.25 L 817 247.5 L 816 248.25 L 816 249.5 L 815 250.25 L 815 251.5 L 814 252.25 L 814 253.5 L 813 254.25 L 813 255.5 L 812 256.25 L 812 258.5 L 810 260.25 L 810 261.5 L 809 262.25 L 809 263.5 L 808 264.25 L 808 265.5 L 807 266.25 L 807 267.5 L 805 269.25 L 805 270.5 L 803 272.25 L 803 273.5 L 802 274.25 L 802 275.5 L 799.5 278 L 797.25 278 L 795.75 276.5 L 795.75 220.25 L 794.75 219.5 L 794.75 205.25 L 793.75 204.5 L 793.75 191.25 L 792.75 190.5 L 792.75 183.25 L 791.75 182.5 L 791.75 178.25 L 790.75 177.5 L 790.75 175.25 L 789.75 174.5 L 789.75 173.25 L 788.75 172.5 L 788.75 171.25 L 787.75 170.5 L 787.75 169.25 L 784.5 166 L 783.25 166 L 782.5 165 L 781.25 165 L 780.5 164 L 769.25 164 L 768.5 165 L 767.25 165 L 765.5 167 L 764.25 167 L 757 174.25 L 757 175.5 L 755 177.25 L 755 178.5 L 753 180.25 L 753 181.5 L 752 182.25 L 752 183.5 L 751 184.25 L 751 186.5 L 750 187.25 L 750 188.5 L 749 189.25 L 749 191.5 L 748 192.25 L 748 194.5 L 747 195.25 L 747 198.5 L 746 199.25 L 746 203.5 L 745 204.25 L 745 209.5 L 746.25 210.75 L 749.5 210.75 L 750.75 209.5 L 750.75 207.25 L 751.75 206.5 L 751.75 202.25 L 752.75 201.5 L 752.75 199.25 L 753.75 198.5 L 753.75 196.25 L 754.75 195.5 L 754.75 194.25 L 755.75 193.5 L 755.75 191.25 L 756.75 190.5 L 756.75 189.25 L 757.75 188.5 L 757.75 187.25 L 759.75 185.5 L 759.75 184.25 L 761.75 182.5 L 761.75 181.25 L 764.25 178.75 L 766.5 178.75 L 767.25 177.75 L 769.5 177.75 L 773 181.25 L 773 182.5 L 774 183.25 L 774 185.5 L 775 186.25 L 775 192.5 L 776 193.25 L 776 201.5 L 777 202.25 L 777 212.5 L 778 213.25 L 778 228.5 L 779 229.25 L 779 248.5 L 780 249.25 L 780 285.5 L 779 286.25 L 779 291.5 L 778 292.25 L 778 295.5 L 777 296.25 L 777 298.5 L 776 299.25 L 776 300.5 L 775 301.25 L 775 303.5 L 774 304.25 L 774 305.5 L 773 306.25 L 773 307.5 L 771 309.25 L 771 310.5 L 768 313.25 L 768 314.5 L 761.5 321 L 760.25 321 L 758.5 323 L 757.25 323 L 755.5 325 L 754.25 325 L 753.5 326 L 751.25 326 L 750.5 327 L 748.25 327 L 747.5 328 L 741.25 328 L 740.5 327 L 738.25 327 L 733.75 322.5 L 733.75 321.25 L 732.75 320.5 L 732.75 319.25 L 731.75 318.5 L 731.75 317.25 L 728.5 314 L 727.25 314 L 726.5 313 L 719.25 313 L 715 317.25 L 715 318.5 L 714 319.25 L 714 327.5 L 715 328.25 L 715 329.5 L 716 330.25 L 716 331.5 L 720.25 335.75 L 721.5 335.75 L 722.25 336.75 L 723.5 336.75 L 724.25 337.75 L 727.5 337.75 L 728.25 338.75 L 739.5 338.75 L 740.25 337.75 L 743.5 337.75 L 744.25 336.75 L 746.5 336.75 L 747.25 335.75 L 749.5 335.75 L 750.25 334.75 L 751.5 334.75 L 752.25 333.75 L 753.5 333.75 L 754.25 332.75 L 755.5 332.75 L 756.25 331.75 L 757.5 331.75 L 759.25 329.75 L 760.5 329.75 L 762.25 327.75 L 763.5 327.75 L 765.25 325.75 L 766.5 325.75 L 770.25 321.75 L 771.5 321.75 L 789.75 303.5 L 789.75 302.25 L 794.75 297.5 L 794.75 296.25 L 797.75 293.5 L 797.75 292.25 L 800.75 289.5 L 800.75 288.25 L 802.75 286.5 L 802.75 285.25 L 804.75 283.5 L 804.75 282.25 L 806.75 280.5 L 806.75 279.25 L 808.75 277.5 L 808.75 276.25 L 809.75 275.5 L 809.75 274.25 L 811.75 272.5 L 811.75 271.25 L 812.75 270.5 L 812.75 269.25 L 814.75 267.5 L 814.75 266.25 L 815.75 265.5 L 815.75 264.25 L 816.75 263.5 L 816.75 262.25 L 817.75 261.5 L 817.75 260.25 L 818.75 259.5 L 818.75 258.25 L 819.75 257.5 L 819.75 256.25 L 820.75 255.5 L 820.75 254.25 L 821.75 253.5 L 821.75 252.25 L 822.75 251.5 L 822.75 250.25 L 823.75 249.5 L 823.75 247.25 L 824.75 246.5 L 824.75 245.25 L 825.75 244.5 L 825.75 242.25 L 826.75 241.5 L 826.75 240.25 L 827.75 239.5 L 827.75 237.25 L 828.75 236.5 L 828.75 235.25 L 829.75 234.5 L 829.75 232.25 L 830.75 231.5 L 830.75 229.25 L 831.75 228.5 L 831.75 226.25 L 832.75 225.5 L 832.75 222.25 L 833.75 221.5 L 833.75 219.25 L 834.75 218.5 L 834.75 215.25 L 835.75 214.5 L 835.75 211.25 L 836.75 210.5 L 836.75 206.25 L 837.75 205.5 L 837.75 199.25 L 838.75 198.5 L 838.75 179.25 L 837.75 178.5 L 837.75 173.25 L 836.75 172.5 L 836.75 171.25 L 835.75 170.5 L 835.75 169.25 Z
M 343.25 114 L 342 115.25 L 342 118.5 L 343.25 119.75 L 345.5 119.75 L 346.25 120.75 L 351.5 120.75 L 352.25 121.75 L 354.5 121.75 L 357 124.25 L 357 125.5 L 358 126.25 L 358 131.5 L 359 132.25 L 359 268.5 L 358 269.25 L 358 274.5 L 357 275.25 L 357 276.5 L 356 277.25 L 356 278.5 L 355.5 279 L 354.25 279 L 352.5 281 L 349.25 281 L 348.5 282 L 345.25 282 L 344.5 283 L 343.25 283 L 343 283.25 L 343 286.5 L 344.25 287.75 L 429.5 287.75 L 430.75 286.5 L 430.75 285.25 L 431.75 284.5 L 431.75 281.25 L 432.75 280.5 L 432.75 263.25 L 433.75 262.5 L 433.75 241.25 L 434.75 240.5 L 434.75 236.25 L 433.75 235.5 L 433.75 234.25 L 432.5 233 L 430.25 233 L 428 235.25 L 428 237.5 L 427 238.25 L 427 245.5 L 426 246.25 L 426 251.5 L 425 252.25 L 425 255.5 L 424 256.25 L 424 259.5 L 423 260.25 L 423 261.5 L 422 262.25 L 422 264.5 L 420 266.25 L 420 267.5 L 419 268.25 L 419 269.5 L 412.5 276 L 411.25 276 L 410.5 277 L 409.25 277 L 408.5 278 L 407.25 278 L 406.5 279 L 404.25 279 L 403.5 280 L 401.25 280 L 400.5 281 L 387.25 281 L 386.5 280 L 384.25 280 L 379.75 275.5 L 379.75 274.25 L 378.75 273.5 L 378.75 271.25 L 377.75 270.5 L 377.75 265.25 L 376.75 264.5 L 376.75 135.25 L 377.75 134.5 L 377.75 126.25 L 378.75 125.5 L 378.75 124.25 L 380.25 122.75 L 381.5 122.75 L 382.25 121.75 L 384.5 121.75 L 385.25 120.75 L 389.5 120.75 L 390.25 119.75 L 392.5 119.75 L 393.75 118.5 L 393.75 115.25 L 392.5 114 Z
M 158.25 30 L 155 33.25 L 155 34.5 L 154 35.25 L 154 39.5 L 153 40.25 L 153 52.5 L 152 53.25 L 152 59.5 L 151 60.25 L 151 66.5 L 150 67.25 L 150 70.5 L 149 71.25 L 149 75.5 L 148 76.25 L 148 79.5 L 147 80.25 L 147 82.5 L 146 83.25 L 146 86.5 L 145 87.25 L 145 89.5 L 144 90.25 L 144 91.5 L 143 92.25 L 143 94.5 L 142 95.25 L 142 96.5 L 141 97.25 L 141 99.5 L 140 100.25 L 140 101.5 L 139 102.25 L 139 103.5 L 138 104.25 L 138 105.5 L 137 106.25 L 137 107.5 L 136 108.25 L 136 109.5 L 135 110.25 L 135 111.5 L 134 112.25 L 134 113.5 L 132 115.25 L 132 116.5 L 131 117.25 L 131 118.5 L 129 120.25 L 129 121.5 L 127 123.25 L 127 124.5 L 125 126.25 L 125 127.5 L 121 131.25 L 121 132.5 L 116 137.25 L 116 138.5 L 110.5 144 L 109.25 144 L 102.5 151 L 101.25 151 L 98.5 154 L 97.25 154 L 94.5 157 L 93.25 157 L 91.5 159 L 90.25 159 L 89.5 160 L 88.25 160 L 86.5 162 L 85.25 162 L 84.5 163 L 83.25 163 L 82.5 164 L 81.25 164 L 80.5 165 L 79.25 165 L 78.5 166 L 77.25 166 L 76.5 167 L 75.25 167 L 74.5 168 L 73.25 168 L 72.5 169 L 70.25 169 L 69.5 170 L 67.25 170 L 66.5 171 L 64.25 171 L 63.5 172 L 60.25 172 L 59.5 173 L 57.25 173 L 56.5 174 L 52.25 174 L 51.5 175 L 47.25 175 L 46.5 176 L 37.25 176 L 36.5 177 L 29.25 177 L 28.5 178 L 27.25 178 L 25 180.25 L 25 181.5 L 24 182.25 L 24 184.5 L 25 185.25 L 25 186.5 L 27.25 188.75 L 28.5 188.75 L 29.25 189.75 L 34.5 189.75 L 35.25 190.75 L 43.5 190.75 L 44.25 191.75 L 49.5 191.75 L 50.25 192.75 L 54.5 192.75 L 55.25 193.75 L 57.5 193.75 L 58.25 194.75 L 61.5 194.75 L 62.25 195.75 L 63.5 195.75 L 64.25 196.75 L 66.5 196.75 L 67.25 197.75 L 69.5 197.75 L 70.25 198.75 L 71.5 198.75 L 72.25 199.75 L 73.5 199.75 L 74.25 200.75 L 75.5 200.75 L 77 202.25 L 77 205.5 L 75.5 207 L 74.25 207 L 72.5 209 L 70.25 209 L 69.5 210 L 68.25 210 L 67.5 211 L 65.25 211 L 64.5 212 L 62.25 212 L 61.5 213 L 59.25 213 L 58.5 214 L 55.25 214 L 54.5 215 L 51.25 215 L 50.5 216 L 45.25 216 L 44.5 217 L 38.25 217 L 37.5 218 L 29.25 218 L 28.5 219 L 27.25 219 L 25 221.25 L 25 222.5 L 24 223.25 L 24 225.5 L 25 226.25 L 25 227.5 L 27.25 229.75 L 28.5 229.75 L 29.25 230.75 L 36.5 230.75 L 37.25 231.75 L 44.5 231.75 L 45.25 232.75 L 50.5 232.75 L 51.25 233.75 L 54.5 233.75 L 55.25 234.75 L 59.5 234.75 L 60.25 235.75 L 62.5 235.75 L 63.25 236.75 L 65.5 236.75 L 66.25 237.75 L 68.5 237.75 L 69.25 238.75 L 70.5 238.75 L 71.25 239.75 L 73.5 239.75 L 74.25 240.75 L 75.5 240.75 L 76.25 241.75 L 77.5 241.75 L 78.25 242.75 L 79.5 242.75 L 80.25 243.75 L 82.5 243.75 L 84.25 245.75 L 85.5 245.75 L 86.25 246.75 L 87.5 246.75 L 89.25 248.75 L 90.5 248.75 L 92.25 250.75 L 93.5 250.75 L 95.25 252.75 L 96.5 252.75 L 98.25 254.75 L 99.5 254.75 L 104.25 259.75 L 105.5 259.75 L 118 272.25 L 118 273.5 L 124 279.25 L 124 280.5 L 126 282.25 L 126 283.5 L 129 286.25 L 129 287.5 L 131 289.25 L 131 290.5 L 132 291.25 L 132 292.5 L 134 294.25 L 134 295.5 L 135 296.25 L 135 297.5 L 136 298.25 L 136 299.5 L 137 300.25 L 137 301.5 L 138 302.25 L 138 303.5 L 139 304.25 L 139 305.5 L 140 306.25 L 140 307.5 L 141 308.25 L 141 309.5 L 142 310.25 L 142 312.5 L 143 313.25 L 143 314.5 L 144 315.25 L 144 317.5 L 145 318.25 L 145 320.5 L 146 321.25 L 146 324.5 L 147 325.25 L 147 327.5 L 148 328.25 L 148 331.5 L 149 332.25 L 149 335.5 L 150 336.25 L 150 340.5 L 151 341.25 L 151 347.5 L 152 348.25 L 152 357.5 L 153 358.25 L 153 368.5 L 154 369.25 L 154 371.5 L 155 372.25 L 155 373.5 L 157.25 375.75 L 158.5 375.75 L 159.25 376.75 L 161.5 376.75 L 162.25 375.75 L 163.5 375.75 L 165.75 373.5 L 165.75 372.25 L 166.75 371.5 L 166.75 368.25 L 167.75 367.5 L 167.75 357.25 L 168.75 356.5 L 168.75 348.25 L 169.75 347.5 L 169.75 341.25 L 170.75 340.5 L 170.75 336.25 L 171.75 335.5 L 171.75 331.25 L 172.75 330.5 L 172.75 328.25 L 173.75 327.5 L 173.75 324.25 L 174.75 323.5 L 174.75 321.25 L 175.75 320.5 L 175.75 318.25 L 176.75 317.5 L 176.75 315.25 L 177.75 314.5 L 177.75 313.25 L 178.75 312.5 L 178.75 310.25 L 179.75 309.5 L 179.75 308.25 L 180.75 307.5 L 180.75 305.25 L 181.75 304.5 L 181.75 303.25 L 182.75 302.5 L 182.75 301.25 L 183.75 300.5 L 183.75 299.25 L 185.75 297.5 L 185.75 296.25 L 186.75 295.5 L 186.75 294.25 L 187.75 293.5 L 187.75 292.25 L 189.75 290.5 L 189.75 289.25 L 191.75 287.5 L 191.75 286.25 L 193.75 284.5 L 193.75 283.25 L 196.75 280.5 L 196.75 279.25 L 200.75 275.5 L 200.75 274.25 L 216.25 258.75 L 217.5 258.75 L 222.25 253.75 L 223.5 253.75 L 225.25 251.75 L 226.5 251.75 L 228.25 249.75 L 229.5 249.75 L 231.25 247.75 L 232.5 247.75 L 233.25 246.75 L 234.5 246.75 L 236.25 244.75 L 237.5 244.75 L 238.25 243.75 L 239.5 243.75 L 240.25 242.75 L 241.5 242.75 L 242.25 241.75 L 243.5 241.75 L 244.25 240.75 L 246.5 240.75 L 247.25 239.75 L 249.5 239.75 L 250.25 238.75 L 251.5 238.75 L 252.25 237.75 L 254.5 237.75 L 255.25 236.75 L 257.5 236.75 L 258.25 235.75 L 260.5 235.75 L 261.25 234.75 L 265.5 234.75 L 266.25 233.75 L 269.5 233.75 L 270.25 232.75 L 275.5 232.75 L 276.25 231.75 L 286.5 231.75 L 287.25 230.75 L 291.5 230.75 L 292.25 229.75 L 293.5 229.75 L 295.75 227.5 L 295.75 225.25 L 296.75 224.25 L 295.75 223.5 L 295.75 221.25 L 293.5 219 L 291.25 219 L 290.5 218 L 283.25 218 L 282.5 217 L 276.25 217 L 275.5 216 L 270.25 216 L 269.5 215 L 266.25 215 L 265.5 214 L 262.25 214 L 261.5 213 L 259.25 213 L 258.5 212 L 256.25 212 L 255.5 211 L 253.25 211 L 252.5 210 L 251.25 210 L 250.5 209 L 248.25 209 L 247.5 208 L 246.25 208 L 243.75 205.5 L 243.75 202.25 L 245.25 200.75 L 246.5 200.75 L 247.25 199.75 L 248.5 199.75 L 249.25 198.75 L 250.5 198.75 L 251.25 197.75 L 252.5 197.75 L 253.25 196.75 L 255.5 196.75 L 256.25 195.75 L 258.5 195.75 L 259.25 194.75 L 262.5 194.75 L 263.25 193.75 L 265.5 193.75 L 266.25 192.75 L 270.5 192.75 L 271.25 191.75 L 276.5 191.75 L 277.25 190.75 L 285.5 190.75 L 286.25 189.75 L 291.5 189.75 L 292.25 188.75 L 293.5 188.75 L 295.75 186.5 L 295.75 181.25 L 294.75 180.5 L 294.5 179 L 293.25 179 L 292.5 178 L 291.25 178 L 290.5 177 L 283.25 177 L 282.5 176 L 274.25 176 L 273.5 175 L 269.25 175 L 268.5 174 L 264.25 174 L 263.5 173 L 261.25 173 L 260.5 172 L 257.25 172 L 256.5 171 L 254.25 171 L 253.5 170 L 251.25 170 L 250.5 169 L 249.25 169 L 248.5 168 L 246.25 168 L 245.5 167 L 244.25 167 L 243.5 166 L 242.25 166 L 241.5 165 L 240.25 165 L 239.5 164 L 238.25 164 L 237.5 163 L 236.25 163 L 235.5 162 L 234.25 162 L 233.5 161 L 232.25 161 L 230.5 159 L 229.25 159 L 227.5 157 L 226.25 157 L 224.5 155 L 223.25 155 L 219.5 151 L 218.25 151 L 213.5 146 L 212.25 146 L 204.75 138.5 L 204.75 137.25 L 198.75 131.5 L 198.75 130.25 L 195.75 127.5 L 195.75 126.25 L 192.75 123.5 L 192.75 122.25 L 190.75 120.5 L 190.75 119.25 L 188.75 117.5 L 188.75 116.25 L 187.75 115.5 L 187.75 114.25 L 186.75 113.5 L 186.75 112.25 L 185.75 111.5 L 185.75 110.25 L 183.75 108.5 L 183.75 107.25 L 182.75 106.5 L 182.75 104.25 L 180.75 102.5 L 180.75 100.25 L 179.75 99.5 L 179.75 98.25 L 178.75 97.5 L 178.75 95.25 L 177.75 94.5 L 177.75 93.25 L 176.75 92.5 L 176.75 90.25 L 175.75 89.5 L 175.75 87.25 L 174.75 86.5 L 174.75 84.25 L 173.75 83.5 L 173.75 80.25 L 172.75 79.5 L 172.75 77.25 L 171.75 76.5 L 171.75 73.25 L 170.75 72.5 L 170.75 69.25 L 169.75 68.5 L 169.75 63.25 L 168.75 62.5 L 168.75 56.25 L 167.75 55.5 L 167.75 47.25 L 166.75 46.5 L 166.75 36.25 L 165.75 35.5 L 165.75 33.25 L 163.5 31 L 162.25 31 L 161.5 30 Z
M 242 221.25 L 242 222.5 L 243 223.25 L 243 227.5 L 240.5 230 L 239.25 230 L 238.5 231 L 237.25 231 L 235.5 233 L 234.25 233 L 233.5 234 L 232.25 234 L 231.5 235 L 230.25 235 L 228.5 237 L 227.25 237 L 225.5 239 L 224.25 239 L 222.5 241 L 221.25 241 L 220.5 242 L 219.25 242 L 215.5 246 L 214.25 246 L 211.5 249 L 210.25 249 L 203.5 256 L 202.25 256 L 193.5 265 L 192.25 265 L 191.5 266 L 189.25 266 L 188.5 265 L 187.25 265 L 185.75 263.5 L 185.75 257.25 L 186.75 256.5 L 186.75 255.25 L 187.75 254.5 L 187.75 253.25 L 188.75 252.5 L 188.75 251.25 L 190.75 249.5 L 190.75 248.25 L 192.75 246.5 L 192.75 245.25 L 194.75 243.5 L 194.75 242.25 L 197.75 239.5 L 197.75 238.25 L 200.75 235.5 L 200.75 234.25 L 218.25 216.75 L 219.5 216.75 L 222.25 213.75 L 227.5 213.75 L 228.25 214.75 L 229.5 214.75 L 230.25 215.75 L 231.5 215.75 L 232.25 216.75 L 233.5 216.75 L 234.25 217.75 L 236.5 217.75 L 237.25 218.75 L 238.5 218.75 L 240.25 220.75 L 241.5 220.75 Z
M 77.75 222.25 L 79.25 220.75 L 80.5 220.75 L 82.25 218.75 L 84.5 218.75 L 85.25 217.75 L 86.5 217.75 L 87.25 216.75 L 88.5 216.75 L 89.25 215.75 L 90.5 215.75 L 92.25 213.75 L 98.5 213.75 L 102.25 217.75 L 103.5 217.75 L 119 233.25 L 119 234.5 L 123 238.25 L 123 239.5 L 126 242.25 L 126 243.5 L 128 245.25 L 128 246.5 L 130 248.25 L 130 249.5 L 132 251.25 L 132 253.5 L 134 255.25 L 134 256.5 L 135 257.25 L 135 262.5 L 134 263.25 L 134 264.5 L 133.5 265 L 132.25 265 L 131.5 266 L 129.25 266 L 128.5 265 L 127.25 265 L 122.5 260 L 121.25 260 L 112.5 251 L 111.25 251 L 106.5 246 L 105.25 246 L 102.5 243 L 101.25 243 L 99.5 241 L 98.25 241 L 96.5 239 L 95.25 239 L 93.5 237 L 92.25 237 L 91.5 236 L 90.25 236 L 89.5 235 L 88.25 235 L 86.5 233 L 85.25 233 L 84.5 232 L 83.25 232 L 81.5 230 L 80.25 230 L 77.75 227.5 Z
M 185.75 145.25 L 188.25 142.75 L 193.5 142.75 L 206.25 155.75 L 207.5 155.75 L 211.25 159.75 L 212.5 159.75 L 215.25 162.75 L 216.5 162.75 L 219.25 165.75 L 220.5 165.75 L 223.25 168.75 L 224.5 168.75 L 225.25 169.75 L 226.5 169.75 L 228.25 171.75 L 229.5 171.75 L 231.25 173.75 L 232.5 173.75 L 233.25 174.75 L 234.5 174.75 L 235.25 175.75 L 236.5 175.75 L 237.25 176.75 L 238.5 176.75 L 243 181.25 L 243 185.5 L 240.5 188 L 239.25 188 L 238.5 189 L 237.25 189 L 236.5 190 L 235.25 190 L 234.5 191 L 233.25 191 L 232.5 192 L 231.25 192 L 230.5 193 L 229.25 193 L 228.5 194 L 227.25 194 L 226.5 195 L 223.25 195 L 222.5 194 L 221.25 194 L 215.5 188 L 214.25 188 L 202.75 176.5 L 202.75 175.25 L 198.75 171.5 L 198.75 170.25 L 195.75 167.5 L 195.75 166.25 L 192.75 163.5 L 192.75 162.25 L 190.75 160.5 L 190.75 159.25 L 188.75 157.5 L 188.75 156.25 L 187.75 155.5 L 187.75 154.25 L 185.75 152.5 L 185.75 149.25 L 184.75 148.5 L 184.75 147.25 L 185.75 146.5 Z
M 135 145.25 L 135 151.5 L 134 152.25 L 134 153.5 L 132 155.25 L 132 156.5 L 131 157.25 L 131 158.5 L 129 160.25 L 129 161.5 L 127 163.25 L 127 164.5 L 125 166.25 L 125 167.5 L 122 170.25 L 122 171.5 L 116 177.25 L 116 178.5 L 108.5 186 L 107.25 186 L 100.5 193 L 99.25 193 L 97.5 195 L 93.25 195 L 92.5 194 L 91.25 194 L 90.5 193 L 89.25 193 L 87.5 191 L 86.25 191 L 85.5 190 L 84.25 190 L 83.5 189 L 82.25 189 L 81.5 188 L 80.25 188 L 77.75 185.5 L 77.75 181.25 L 78.75 180.5 L 78.75 179.25 L 79.25 178.75 L 80.5 178.75 L 81.25 177.75 L 82.5 177.75 L 84.25 175.75 L 85.5 175.75 L 86.25 174.75 L 87.5 174.75 L 89.25 172.75 L 90.5 172.75 L 91.25 171.75 L 92.5 171.75 L 94.25 169.75 L 95.5 169.75 L 97.25 167.75 L 98.5 167.75 L 100.25 165.75 L 101.5 165.75 L 104.25 162.75 L 105.5 162.75 L 108.25 159.75 L 109.5 159.75 L 116.25 152.75 L 117.5 152.75 L 127.25 142.75 L 132.5 142.75 Z
M 158.25 133.75 L 161.5 133.75 L 164 136.25 L 164 137.5 L 165 138.25 L 165 139.5 L 166 140.25 L 166 141.5 L 167 142.25 L 167 144.5 L 168 145.25 L 168 146.5 L 169 147.25 L 169 148.5 L 170 149.25 L 170 150.5 L 171 151.25 L 171 152.5 L 172 153.25 L 172 154.5 L 174 156.25 L 174 157.5 L 175 158.25 L 175 159.5 L 176 160.25 L 176 161.5 L 178 163.25 L 178 164.5 L 179 165.25 L 179 166.5 L 181 168.25 L 181 169.5 L 183 171.25 L 183 172.5 L 186 175.25 L 186 176.5 L 189 179.25 L 189 180.5 L 193 184.25 L 193 185.5 L 209.25 201.75 L 210.5 201.75 L 211 202.25 L 211 205.5 L 205.5 211 L 204.25 211 L 197 218.25 L 197 219.5 L 191 225.25 L 191 226.5 L 187 230.25 L 187 231.5 L 184 234.25 L 184 235.5 L 182 237.25 L 182 238.5 L 181 239.25 L 181 240.5 L 179 242.25 L 179 243.5 L 177 245.25 L 177 246.5 L 176 247.25 L 176 248.5 L 174 250.25 L 174 251.5 L 173 252.25 L 173 253.5 L 172 254.25 L 172 255.5 L 171 256.25 L 171 257.5 L 170 258.25 L 170 259.5 L 169 260.25 L 169 261.5 L 168 262.25 L 168 263.5 L 167 264.25 L 167 265.5 L 166 266.25 L 166 267.5 L 165 268.25 L 165 269.5 L 161.5 273 L 159.25 273 L 155.75 269.5 L 155.75 268.25 L 154.75 267.5 L 154.75 266.25 L 152.75 264.5 L 152.75 263.25 L 151.75 262.5 L 151.75 261.25 L 150.75 260.5 L 150.75 259.25 L 149.75 258.5 L 149.75 257.25 L 148.75 256.5 L 148.75 255.25 L 147.75 254.5 L 147.75 253.25 L 146.75 252.5 L 146.75 251.25 L 145.75 250.5 L 145.75 249.25 L 144.75 248.5 L 144.75 247.25 L 143.75 246.5 L 143.75 245.25 L 141.75 243.5 L 141.75 242.25 L 139.75 240.5 L 139.75 239.25 L 137.75 237.5 L 137.75 236.25 L 135.75 234.5 L 135.75 233.25 L 132.75 230.5 L 132.75 229.25 L 129.75 226.5 L 129.75 225.25 L 121.75 217.5 L 121.5 216 L 120.25 216 L 119.75 215.5 L 119.5 214 L 118.25 214 L 117.75 213.5 L 117.75 212.25 L 116.5 211 L 115.25 211 L 108.75 204.5 L 108.75 203.25 L 110.25 201.75 L 111.5 201.75 L 126.75 186.5 L 126.75 185.25 L 131.75 180.5 L 131.75 179.25 L 134.75 176.5 L 134.75 175.25 L 136.75 173.5 L 136.75 172.25 L 138.75 170.5 L 138.75 169.25 L 140.75 167.5 L 140.75 166.25 L 142.75 164.5 L 142.75 163.25 L 144.75 161.5 L 144.75 160.25 L 145.75 159.5 L 145.75 158.25 L 146.75 157.5 L 146.75 156.25 L 147.75 155.5 L 147.75 154.25 L 148.75 153.5 L 148.75 152.25 L 150.75 150.5 L 150.75 148.25 L 151.75 147.5 L 151.75 146.25 L 152.75 145.5 L 152.75 144.25 L 153.75 143.5 L 153.75 142.25 L 154.75 141.5 L 154.75 140.25 L 155.75 139.5 L 155.75 138.25 L 156.75 137.5 L 156.75 136.25 L 157.75 135.5 L 157.75 134.25 Z" fill="#111111" fill-rule="evenodd"/>
</svg>
