<svg xmlns="http://www.w3.org/2000/svg" viewBox="23.50 29.50 273.75 347.75" role="img" aria-label="Luneya"><path d="M 158.25 30 L 155 33.25 L 155 34.5 L 154 35.25 L 154 39.5 L 153 40.25 L 153 52.5 L 152 53.25 L 152 59.5 L 151 60.25 L 151 66.5 L 150 67.25 L 150 70.5 L 149 71.25 L 149 75.5 L 148 76.25 L 148 79.5 L 147 80.25 L 147 82.5 L 146 83.25 L 146 86.5 L 145 87.25 L 145 89.5 L 144 90.25 L 144 91.5 L 143 92.25 L 143 94.5 L 142 95.25 L 142 96.5 L 141 97.25 L 141 99.5 L 140 100.25 L 140 101.5 L 139 102.25 L 139 103.5 L 138 104.25 L 138 105.5 L 137 106.25 L 137 107.5 L 136 108.25 L 136 109.5 L 135 110.25 L 135 111.5 L 134 112.25 L 134 113.5 L 132 115.25 L 132 116.5 L 131 117.25 L 131 118.5 L 129 120.25 L 129 121.5 L 127 123.25 L 127 124.5 L 125 126.25 L 125 127.5 L 121 131.25 L 121 132.5 L 116 137.25 L 116 138.5 L 110.5 144 L 109.25 144 L 102.5 151 L 101.25 151 L 98.5 154 L 97.25 154 L 94.5 157 L 93.25 157 L 91.5 159 L 90.25 159 L 89.5 160 L 88.25 160 L 86.5 162 L 85.25 162 L 84.5 163 L 83.25 163 L 82.5 164 L 81.25 164 L 80.5 165 L 79.25 165 L 78.5 166 L 77.25 166 L 76.5 167 L 75.25 167 L 74.5 168 L 73.25 168 L 72.5 169 L 70.25 169 L 69.5 170 L 67.25 170 L 66.5 171 L 64.25 171 L 63.5 172 L 60.25 172 L 59.5 173 L 57.25 173 L 56.5 174 L 52.25 174 L 51.5 175 L 47.25 175 L 46.5 176 L 37.25 176 L 36.5 177 L 29.25 177 L 28.5 178 L 27.25 178 L 25 180.25 L 25 181.5 L 24 182.25 L 24 184.5 L 25 185.25 L 25 186.5 L 27.25 188.75 L 28.5 188.75 L 29.25 189.75 L 34.5 189.75 L 35.25 190.75 L 43.5 190.75 L 44.25 191.75 L 49.5 191.75 L 50.25 192.75 L 54.5 192.75 L 55.25 193.75 L 57.5 193.75 L 58.25 194.75 L 61.5 194.75 L 62.25 195.75 L 63.5 195.75 L 64.25 196.75 L 66.5 196.75 L 67.25 197.75 L 69.5 197.75 L 70.25 198.75 L 71.5 198.75 L 72.25 199.75 L 73.5 199.75 L 74.25 200.75 L 75.5 200.75 L 77 202.25 L 77 205.5 L 75.5 207 L 74.25 207 L 72.5 209 L 70.25 209 L 69.5 210 L 68.25 210 L 67.5 211 L 65.25 211 L 64.5 212 L 62.25 212 L 61.5 213 L 59.25 213 L 58.5 214 L 55.25 214 L 54.5 215 L 51.25 215 L 50.5 216 L 45.25 216 L 44.5 217 L 38.25 217 L 37.5 218 L 29.25 218 L 28.5 219 L 27.25 219 L 25 221.25 L 25 222.5 L 24 223.25 L 24 225.5 L 25 226.25 L 25 227.5 L 27.25 229.75 L 28.5 229.75 L 29.25 230.75 L 36.5 230.75 L 37.25 231.75 L 44.5 231.75 L 45.25 232.75 L 50.5 232.75 L 51.25 233.75 L 54.5 233.75 L 55.25 234.75 L 59.5 234.75 L 60.25 235.75 L 62.5 235.75 L 63.25 236.75 L 65.5 236.75 L 66.25 237.75 L 68.5 237.75 L 69.25 238.75 L 70.5 238.75 L 71.25 239.75 L 73.5 239.75 L 74.25 240.75 L 75.5 240.75 L 76.25 241.75 L 77.5 241.75 L 78.25 242.75 L 79.5 242.75 L 80.25 243.75 L 82.5 243.75 L 84.25 245.75 L 85.5 245.75 L 86.25 246.75 L 87.5 246.75 L 89.25 248.75 L 90.5 248.75 L 92.25 250.75 L 93.5 250.75 L 95.25 252.75 L 96.5 252.75 L 98.25 254.75 L 99.5 254.75 L 104.25 259.75 L 105.5 259.75 L 118 272.25 L 118 273.5 L 124 279.25 L 124 280.5 L 126 282.25 L 126 283.5 L 129 286.25 L 129 287.5 L 131 289.25 L 131 290.5 L 132 291.25 L 132 292.5 L 134 294.25 L 134 295.5 L 135 296.25 L 135 297.5 L 136 298.25 L 136 299.5 L 137 300.25 L 137 301.5 L 138 302.25 L 138 303.5 L 139 304.25 L 139 305.5 L 140 306.25 L 140 307.5 L 141 308.25 L 141 309.5 L 142 310.25 L 142 312.5 L 143 313.25 L 143 314.5 L 144 315.25 L 144 317.5 L 145 318.25 L 145 320.5 L 146 321.25 L 146 324.5 L 147 325.25 L 147 327.5 L 148 328.25 L 148 331.5 L 149 332.25 L 149 335.5 L 150 336.25 L 150 340.5 L 151 341.25 L 151 347.5 L 152 348.25 L 152 357.5 L 153 358.25 L 153 368.5 L 154 369.25 L 154 371.5 L 155 372.25 L 155 373.5 L 157.25 375.75 L 158.5 375.75 L 159.25 376.75 L 161.5 376.75 L 162.25 375.75 L 163.5 375.75 L 165.75 373.5 L 165.75 372.25 L 166.75 371.5 L 166.75 368.25 L 167.75 367.5 L 167.75 357.25 L 168.75 356.5 L 168.75 348.25 L 169.75 347.5 L 169.75 341.25 L 170.75 340.5 L 170.75 336.25 L 171.75 335.5 L 171.75 331.25 L 172.75 330.5 L 172.75 328.25 L 173.75 327.5 L 173.75 324.25 L 174.75 323.5 L 174.75 321.25 L 175.75 320.5 L 175.75 318.25 L 176.75 317.5 L 176.75 315.25 L 177.75 314.5 L 177.75 313.25 L 178.75 312.5 L 178.75 310.25 L 179.75 309.5 L 179.75 308.25 L 180.75 307.5 L 180.75 305.25 L 181.75 304.5 L 181.75 303.25 L 182.75 302.5 L 182.75 301.25 L 183.75 300.5 L 183.75 299.25 L 185.75 297.5 L 185.75 296.25 L 186.75 295.5 L 186.75 294.25 L 187.75 293.5 L 187.75 292.25 L 189.75 290.5 L 189.75 289.25 L 191.75 287.5 L 191.75 286.25 L 193.75 284.5 L 193.75 283.25 L 196.75 280.5 L 196.75 279.25 L 200.75 275.5 L 200.75 274.25 L 216.25 258.75 L 217.5 258.75 L 222.25 253.75 L 223.5 253.75 L 225.25 251.75 L 226.5 251.75 L 228.25 249.75 L 229.5 249.75 L 231.25 247.75 L 232.5 247.75 L 233.25 246.75 L 234.5 246.75 L 236.25 244.75 L 237.5 244.75 L 238.25 243.75 L 239.5 243.75 L 240.25 242.75 L 241.5 242.75 L 242.25 241.75 L 243.5 241.75 L 244.25 240.75 L 246.5 240.75 L 247.25 239.75 L 249.5 239.75 L 250.25 238.75 L 251.5 238.75 L 252.25 237.75 L 254.5 237.75 L 255.25 236.75 L 257.5 236.75 L 258.25 235.75 L 260.5 235.75 L 261.25 234.75 L 265.5 234.75 L 266.25 233.75 L 269.5 233.75 L 270.25 232.75 L 275.5 232.75 L 276.25 231.75 L 286.5 231.75 L 287.25 230.75 L 291.5 230.75 L 292.25 229.75 L 293.5 229.75 L 295.75 227.5 L 295.75 225.25 L 296.75 224.25 L 295.75 223.5 L 295.75 221.25 L 293.5 219 L 291.25 219 L 290.5 218 L 283.25 218 L 282.5 217 L 276.25 217 L 275.5 216 L 270.25 216 L 269.5 215 L 266.25 215 L 265.5 214 L 262.25 214 L 261.5 213 L 259.25 213 L 258.5 212 L 256.25 212 L 255.5 211 L 253.25 211 L 252.5 210 L 251.25 210 L 250.5 209 L 248.25 209 L 247.5 208 L 246.25 208 L 243.75 205.5 L 243.75 202.25 L 245.25 200.75 L 246.5 200.75 L 247.25 199.75 L 248.5 199.75 L 249.25 198.75 L 250.5 198.75 L 251.25 197.75 L 252.5 197.75 L 253.25 196.75 L 255.5 196.75 L 256.25 195.75 L 258.5 195.75 L 259.25 194.75 L 262.5 194.75 L 263.25 193.75 L 265.5 193.75 L 266.25 192.75 L 270.5 192.75 L 271.25 191.75 L 276.5 191.75 L 277.25 190.75 L 285.5 190.75 L 286.25 189.75 L 291.5 189.75 L 292.25 188.75 L 293.5 188.75 L 295.75 186.5 L 295.75 181.25 L 294.75 180.5 L 294.5 179 L 293.25 179 L 292.5 178 L 291.25 178 L 290.5 177 L 283.25 177 L 282.5 176 L 274.25 176 L 273.5 175 L 269.25 175 L 268.5 174 L 264.25 174 L 263.5 173 L 261.25 173 L 260.5 172 L 257.25 172 L 256.5 171 L 254.25 171 L 253.5 170 L 251.25 170 L 250.5 169 L 249.25 169 L 248.5 168 L 246.25 168 L 245.5 167 L 244.25 167 L 243.5 166 L 242.25 166 L 241.5 165 L 240.25 165 L 239.5 164 L 238.25 164 L 237.5 163 L 236.25 163 L 235.5 162 L 234.25 162 L 233.5 161 L 232.25 161 L 230.5 159 L 229.25 159 L 227.5 157 L 226.25 157 L 224.5 155 L 223.25 155 L 219.5 151 L 218.25 151 L 213.5 146 L 212.25 146 L 204.75 138.5 L 204.75 137.25 L 198.75 131.5 L 198.75 130.25 L 195.75 127.5 L 195.75 126.25 L 192.75 123.5 L 192.75 122.25 L 190.75 120.5 L 190.75 119.25 L 188.75 117.5 L 188.75 116.25 L 187.75 115.5 L 187.75 114.25 L 186.75 113.5 L 186.75 112.25 L 185.75 111.5 L 185.75 110.25 L 183.75 108.5 L 183.75 107.25 L 182.75 106.5 L 182.75 104.25 L 180.75 102.5 L 180.75 100.25 L 179.75 99.5 L 179.75 98.25 L 178.75 97.5 L 178.75 95.25 L 177.75 94.5 L 177.75 93.25 L 176.75 92.5 L 176.75 90.25 L 175.75 89.5 L 175.75 87.25 L 174.75 86.5 L 174.75 84.25 L 173.75 83.5 L 173.75 80.25 L 172.75 79.5 L 172.75 77.25 L 171.75 76.5 L 171.75 73.25 L 170.75 72.5 L 170.75 69.25 L 169.75 68.5 L 169.75 63.25 L 168.75 62.5 L 168.75 56.25 L 167.75 55.5 L 167.75 47.25 L 166.75 46.5 L 166.75 36.25 L 165.75 35.5 L 165.75 33.25 L 163.5 31 L 162.25 31 L 161.5 30 Z M 242 221.25 L 242 222.5 L 243 223.25 L 243 227.5 L 240.5 230 L 239.25 230 L 238.5 231 L 237.25 231 L 235.5 233 L 234.25 233 L 233.5 234 L 232.25 234 L 231.5 235 L 230.25 235 L 228.5 237 L 227.25 237 L 225.5 239 L 224.25 239 L 222.5 241 L 221.25 241 L 220.5 242 L 219.25 242 L 215.5 246 L 214.25 246 L 211.5 249 L 210.25 249 L 203.5 256 L 202.25 256 L 193.5 265 L 192.25 265 L 191.5 266 L 189.25 266 L 188.5 265 L 187.25 265 L 185.75 263.5 L 185.75 257.25 L 186.75 256.5 L 186.75 255.25 L 187.75 254.5 L 187.75 253.25 L 188.75 252.5 L 188.75 251.25 L 190.75 249.5 L 190.75 248.25 L 192.75 246.5 L 192.75 245.25 L 194.75 243.5 L 194.75 242.25 L 197.75 239.5 L 197.75 238.25 L 200.75 235.5 L 200.75 234.25 L 218.25 216.75 L 219.5 216.75 L 222.25 213.75 L 227.5 213.75 L 228.25 214.75 L 229.5 214.75 L 230.25 215.75 L 231.5 215.75 L 232.25 216.75 L 233.5 216.75 L 234.25 217.75 L 236.5 217.75 L 237.25 218.75 L 238.5 218.75 L 240.25 220.75 L 241.5 220.75 Z M 77.75 222.25 L 79.25 220.75 L 80.5 220.75 L 82.25 218.75 L 84.5 218.75 L 85.25 217.75 L 86.5 217.75 L 87.25 216.75 L 88.5 216.75 L 89.25 215.75 L 90.5 215.75 L 92.25 213.75 L 98.5 213.75 L 102.25 217.75 L 103.5 217.75 L 119 233.25 L 119 234.5 L 123 238.25 L 123 239.5 L 126 242.25 L 126 243.5 L 128 245.25 L 128 246.5 L 130 248.25 L 130 249.5 L 132 251.25 L 132 253.5 L 134 255.25 L 134 256.5 L 135 257.25 L 135 262.5 L 134 263.25 L 134 264.5 L 133.5 265 L 132.25 265 L 131.5 266 L 129.25 266 L 128.5 265 L 127.25 265 L 122.5 260 L 121.25 260 L 112.5 251 L 111.25 251 L 106.5 246 L 105.25 246 L 102.5 243 L 101.25 243 L 99.5 241 L 98.25 241 L 96.5 239 L 95.25 239 L 93.5 237 L 92.25 237 L 91.5 236 L 90.25 236 L 89.5 235 L 88.25 235 L 86.5 233 L 85.25 233 L 84.5 232 L 83.25 232 L 81.5 230 L 80.25 230 L 77.75 227.5 Z M 185.75 145.25 L 188.25 142.75 L 193.5 142.75 L 206.25 155.75 L 207.5 155.75 L 211.25 159.75 L 212.5 159.75 L 215.25 162.75 L 216.5 162.75 L 219.25 165.75 L 220.5 165.75 L 223.25 168.75 L 224.5 168.75 L 225.25 169.75 L 226.5 169.75 L 228.25 171.75 L 229.5 171.75 L 231.25 173.75 L 232.5 173.75 L 233.25 174.75 L 234.5 174.75 L 235.25 175.75 L 236.5 175.75 L 237.25 176.75 L 238.5 176.75 L 243 181.25 L 243 185.5 L 240.5 188 L 239.25 188 L 238.5 189 L 237.25 189 L 236.5 190 L 235.25 190 L 234.5 191 L 233.25 191 L 232.5 192 L 231.25 192 L 230.5 193 L 229.25 193 L 228.5 194 L 227.25 194 L 226.5 195 L 223.25 195 L 222.5 194 L 221.25 194 L 215.5 188 L 214.25 188 L 202.75 176.5 L 202.75 175.25 L 198.75 171.5 L 198.75 170.25 L 195.75 167.5 L 195.75 166.25 L 192.75 163.5 L 192.75 162.25 L 190.75 160.5 L 190.75 159.25 L 188.75 157.5 L 188.75 156.25 L 187.75 155.5 L 187.75 154.25 L 185.75 152.5 L 185.75 149.25 L 184.75 148.5 L 184.75 147.25 L 185.75 146.5 Z M 135 145.25 L 135 151.5 L 134 152.25 L 134 153.5 L 132 155.25 L 132 156.5 L 131 157.25 L 131 158.5 L 129 160.25 L 129 161.5 L 127 163.25 L 127 164.5 L 125 166.25 L 125 167.5 L 122 170.25 L 122 171.5 L 116 177.25 L 116 178.5 L 108.5 186 L 107.25 186 L 100.5 193 L 99.25 193 L 97.5 195 L 93.25 195 L 92.5 194 L 91.25 194 L 90.5 193 L 89.25 193 L 87.5 191 L 86.25 191 L 85.5 190 L 84.25 190 L 83.5 189 L 82.25 189 L 81.5 188 L 80.25 188 L 77.75 185.5 L 77.75 181.25 L 78.75 180.5 L 78.75 179.25 L 79.25 178.75 L 80.5 178.75 L 81.25 177.75 L 82.5 177.75 L 84.25 175.75 L 85.5 175.75 L 86.25 174.75 L 87.5 174.75 L 89.25 172.75 L 90.5 172.75 L 91.25 171.75 L 92.5 171.75 L 94.25 169.75 L 95.5 169.75 L 97.25 167.75 L 98.5 167.75 L 100.25 165.75 L 101.5 165.75 L 104.25 162.75 L 105.5 162.75 L 108.25 159.75 L 109.5 159.75 L 116.25 152.75 L 117.5 152.75 L 127.25 142.75 L 132.5 142.75 Z M 158.25 133.75 L 161.5 133.75 L 164 136.25 L 164 137.5 L 165 138.25 L 165 139.5 L 166 140.25 L 166 141.5 L 167 142.25 L 167 144.5 L 168 145.25 L 168 146.5 L 169 147.25 L 169 148.5 L 170 149.25 L 170 150.5 L 171 151.25 L 171 152.5 L 172 153.25 L 172 154.5 L 174 156.25 L 174 157.5 L 175 158.25 L 175 159.5 L 176 160.25 L 176 161.5 L 178 163.25 L 178 164.5 L 179 165.25 L 179 166.5 L 181 168.25 L 181 169.5 L 183 171.25 L 183 172.5 L 186 175.25 L 186 176.5 L 189 179.25 L 189 180.5 L 193 184.25 L 193 185.5 L 209.25 201.75 L 210.5 201.75 L 211 202.25 L 211 205.5 L 205.5 211 L 204.25 211 L 197 218.25 L 197 219.5 L 191 225.25 L 191 226.5 L 187 230.25 L 187 231.5 L 184 234.25 L 184 235.5 L 182 237.25 L 182 238.5 L 181 239.25 L 181 240.5 L 179 242.25 L 179 243.5 L 177 245.25 L 177 246.5 L 176 247.25 L 176 248.5 L 174 250.25 L 174 251.5 L 173 252.25 L 173 253.5 L 172 254.25 L 172 255.5 L 171 256.25 L 171 257.5 L 170 258.25 L 170 259.5 L 169 260.25 L 169 261.5 L 168 262.25 L 168 263.5 L 167 264.25 L 167 265.5 L 166 266.25 L 166 267.5 L 165 268.25 L 165 269.5 L 161.5 273 L 159.25 273 L 155.75 269.5 L 155.75 268.25 L 154.75 267.5 L 154.75 266.25 L 152.75 264.5 L 152.75 263.25 L 151.75 262.5 L 151.75 261.25 L 150.75 260.5 L 150.75 259.25 L 149.75 258.5 L 149.75 257.25 L 148.75 256.5 L 148.75 255.25 L 147.75 254.5 L 147.75 253.25 L 146.75 252.5 L 146.75 251.25 L 145.75 250.5 L 145.75 249.25 L 144.75 248.5 L 144.75 247.25 L 143.75 246.5 L 143.75 245.25 L 141.75 243.5 L 141.75 242.25 L 139.75 240.5 L 139.75 239.25 L 137.75 237.5 L 137.75 236.25 L 135.75 234.5 L 135.75 233.25 L 132.75 230.5 L 132.75 229.25 L 129.75 226.5 L 129.75 225.25 L 121.75 217.5 L 121.5 216 L 120.25 216 L 119.75 215.5 L 119.5 214 L 118.25 214 L 117.75 213.5 L 117.75 212.25 L 116.5 211 L 115.25 211 L 108.75 204.5 L 108.75 203.25 L 110.25 201.75 L 111.5 201.75 L 126.75 186.5 L 126.75 185.25 L 131.75 180.5 L 131.75 179.25 L 134.75 176.5 L 134.75 175.25 L 136.75 173.5 L 136.75 172.25 L 138.75 170.5 L 138.75 169.25 L 140.75 167.5 L 140.75 166.25 L 142.75 164.5 L 142.75 163.25 L 144.75 161.5 L 144.75 160.25 L 145.75 159.5 L 145.75 158.25 L 146.75 157.5 L 146.75 156.25 L 147.75 155.5 L 147.75 154.25 L 148.75 153.5 L 148.75 152.25 L 150.75 150.5 L 150.75 148.25 L 151.75 147.5 L 151.75 146.25 L 152.75 145.5 L 152.75 144.25 L 153.75 143.5 L 153.75 142.25 L 154.75 141.5 L 154.75 140.25 L 155.75 139.5 L 155.75 138.25 L 156.75 137.5 L 156.75 136.25 L 157.75 135.5 L 157.75 134.25 Z" fill="#ffffff" fill-rule="evenodd"/></svg>