<svg width="32" height="32" viewBox="0 0 32 32" fill="none" xmlns="http://www.w3.org/2000/svg">
<g clip-path="url(#clip0_4958_24691)">
<path fill-rule="evenodd" clip-rule="evenodd" d="M16.0137 0.098938C7.23769 0.098938 0.0986328 7.21002 0.0986328 15.986C0.0986328 24.762 7.23797 31.9011 16.0139 31.9011C24.7898 31.9011 31.9008 24.7902 31.9008 15.986C31.9008 7.18184 24.7899 0.098938 16.0137 0.098938Z" fill="white"/>
<path d="M16.014 32C13.855 32 11.7597 31.5773 9.78644 30.7436C8.83771 30.3428 7.9226 29.8466 7.06637 29.2689C6.21809 28.6966 5.42046 28.0392 4.69552 27.315C3.9703 26.5907 3.31191 25.7937 2.73862 24.946C2.15962 24.0899 1.66223 23.1745 1.26042 22.2255C0.424139 20.2501 0 18.1508 0 15.986C0 13.8212 0.424139 11.7341 1.26042 9.76267C1.66223 8.81546 2.15962 7.90188 2.73862 7.04718C3.31205 6.20085 3.97044 5.40488 4.69552 4.68147C5.42046 3.9582 6.21823 3.30161 7.06637 2.72972C7.9226 2.15252 8.83771 1.65667 9.78644 1.2561C11.7601 0.422607 13.8554 0 16.014 0C18.1727 0 20.2663 0.422607 22.2373 1.2561C23.1846 1.65667 24.0982 2.15252 24.9527 2.72986C25.7992 3.30161 26.5952 3.95834 27.3184 4.68161C28.0417 5.40488 28.6984 6.20085 29.2702 7.04732C29.8475 7.90188 30.3432 8.8156 30.7438 9.76281C31.5773 11.7337 31.9997 13.8275 31.9997 15.986C31.9997 18.1445 31.5771 20.2504 30.7438 22.2255C30.3432 23.1746 29.8474 24.09 29.2702 24.946C28.6984 25.7937 28.0418 26.5908 27.3184 27.315C26.5952 28.0392 25.7992 28.6966 24.9527 29.2689C24.0982 29.8466 23.1846 30.3428 22.2373 30.7436C20.2667 31.5774 18.1729 32.0001 16.014 32.0001V32ZM16.014 0.19784C13.8819 0.19784 11.8125 0.615146 9.86331 1.43832C8.92644 1.834 8.0225 2.32371 7.17701 2.89379C6.33934 3.45857 5.55133 4.1072 4.83532 4.82155C4.11903 5.53603 3.46873 6.32223 2.90242 7.1581C2.33053 8.0022 1.83942 8.90448 1.44249 9.83996C0.616536 11.7868 0.197838 13.8547 0.197838 15.986C0.197838 18.1173 0.616675 20.1974 1.44263 22.1485C1.83942 23.0858 2.33067 23.9897 2.90256 24.8353C3.46887 25.6726 4.11917 26.4598 4.83546 27.1752C5.55147 27.8904 6.33934 28.5396 7.17715 29.1049C8.02264 29.6754 8.92644 30.1654 9.86345 30.5614C11.8123 31.3847 13.8816 31.8023 16.014 31.8023C18.1464 31.8023 20.2142 31.3849 22.1603 30.5614C23.0959 30.1656 23.9981 29.6754 24.8421 29.1049C25.6781 28.5396 26.4643 27.8904 27.1786 27.1752C27.8931 26.4599 28.5416 25.6726 29.1064 24.8353C29.6766 23.99 30.1662 23.0859 30.5618 22.1485C31.3849 20.198 31.8023 18.1245 31.8023 15.9858C31.8023 13.8471 31.385 11.786 30.5618 9.83968C30.1663 8.9042 29.6766 8.00178 29.1065 7.15782C28.5417 6.32181 27.8932 5.53561 27.1788 4.82127C26.4644 4.10679 25.6782 3.45829 24.8422 2.89352C23.9983 2.32343 23.0959 1.83372 22.1604 1.43804C20.214 0.615006 18.1462 0.197561 16.0142 0.197561L16.014 0.19784Z" fill="#9C9DA1"/>
<path fill-rule="evenodd" clip-rule="evenodd" d="M8.84631 8.73383V17.5098C8.84631 17.5098 8.45133 22.8431 16.0138 26.032C23.5483 22.843 23.1814 17.5098 23.1814 17.5098V8.73383H8.84631Z" fill="#9C9DA1"/>
<path d="M16.0142 26.1395L15.9757 26.1233C14.2401 25.3913 12.7803 24.4845 11.6367 23.4279C10.7195 22.5804 10.0025 21.6353 9.50566 20.6186C9.06282 19.7126 8.88033 18.9161 8.80527 18.4075C8.72714 17.8783 8.74514 17.5475 8.74779 17.5065V8.63507H23.2807V17.5068C23.283 17.5468 23.2995 17.8777 23.2191 18.4079C23.1421 18.9165 22.9568 19.7129 22.5122 20.6188C22.0133 21.6353 21.2959 22.5804 20.3799 23.4279C19.2378 24.4846 17.7819 25.3915 16.0527 26.1233L16.0142 26.1396V26.1395ZM8.94549 8.83277V17.5135L8.94521 17.5171C8.94493 17.5203 8.92233 17.8526 9.00255 18.3895C9.07649 18.8847 9.25564 19.6603 9.68898 20.5431C10.1762 21.5358 10.8789 22.4596 11.7779 23.2888C12.8951 24.3194 14.3202 25.2061 16.0142 25.9246C17.702 25.2061 19.123 24.3194 20.2389 23.2888C21.1367 22.4596 21.8399 21.5357 22.3292 20.543C22.7643 19.66 22.9461 18.8842 23.0221 18.3891C23.1045 17.8521 23.0835 17.5199 23.0833 17.5165L23.083 17.5098V8.83277H8.94562H8.94549Z" fill="#9C9DA1"/>
<path d="M16.0138 26.893C14.5445 26.893 13.1183 26.6053 11.7748 26.0378C10.476 25.4892 9.30946 24.7038 8.30744 23.7036C7.30443 22.7022 6.51685 21.5361 5.96658 20.2373C5.39651 18.8915 5.10742 17.4613 5.10742 15.9863C5.10742 14.5113 5.39651 13.093 5.96672 11.7513C6.51698 10.4562 7.30457 9.29278 8.30758 8.29354C9.30988 7.29485 10.4765 6.51047 11.7749 5.96257C13.1188 5.39542 14.5451 5.10773 16.0139 5.10773C17.4828 5.10773 18.9073 5.39528 20.2486 5.96257C21.544 6.51047 22.7075 7.29471 23.7065 8.29368C24.7054 9.29264 25.4898 10.456 26.0377 11.7514C26.605 13.0926 26.8925 14.5174 26.8925 15.9863C26.8925 17.4552 26.605 18.8919 26.0377 20.2372C25.4899 21.5363 24.7057 22.7025 23.7066 23.7034C22.7079 24.7039 21.5446 25.4893 20.2487 26.0378C18.908 26.6053 17.4832 26.893 16.0141 26.893H16.0138ZM16.0138 5.30543C10.1089 5.30543 5.30512 10.0968 5.30512 15.9861C5.30512 17.4345 5.5889 18.8388 6.14865 20.16C6.68887 21.4351 7.46223 22.5802 8.44709 23.5634C9.43098 24.5456 10.5766 25.3167 11.8518 25.8554C13.1708 26.4126 14.5712 26.695 16.0139 26.695C17.4567 26.695 18.8551 26.4125 20.1715 25.8554C21.4436 25.317 22.5858 24.5459 23.5664 23.5635C24.5473 22.5807 25.3175 21.4357 25.8553 20.1602C26.4123 18.8393 26.6945 17.4349 26.6945 15.9861C26.6945 14.5374 26.4122 13.1451 25.8553 11.8284C25.3175 10.5566 24.5473 9.41431 23.5665 8.43348C22.5857 7.45265 21.4435 6.68249 20.1716 6.14464C18.855 5.58782 17.4561 5.30543 16.0141 5.30543H16.0138Z" fill="#9C9DA1"/>
<path fill-rule="evenodd" clip-rule="evenodd" d="M2.75151 15.6192C3.00557 15.6192 3.23117 15.3933 3.23117 15.1112C3.23117 14.8291 3.00529 14.6315 2.75151 14.6315C2.46926 14.6315 2.24352 14.829 2.24352 15.1112C2.24352 15.3935 2.46912 15.6192 2.75151 15.6192ZM29.2769 15.5628C29.559 15.5628 29.7849 15.3654 29.7849 15.0832C29.7849 14.8009 29.559 14.5752 29.2769 14.5752C29.0228 14.5752 28.797 14.801 28.797 15.0832C28.797 15.3653 29.0228 15.5628 29.2769 15.5628ZM4.16219 9.66502C5.09334 10.0318 5.7707 10.568 5.31922 11.6967C5.00893 12.4585 4.44443 12.7126 3.56979 12.3458L2.07414 11.7531C1.70735 11.6119 1.70735 12.0917 1.53797 12.0353C1.48146 12.0072 1.48146 11.9506 1.48146 11.9225C1.50965 11.866 1.59434 11.5557 1.67888 11.3581C1.76357 11.1325 1.84826 10.8501 1.87644 10.7657C1.87644 10.7375 1.93295 10.7375 1.96113 10.7375C2.10205 10.794 1.76357 11.0481 2.52549 11.3584L3.51314 11.7536C4.19051 12.0359 4.83955 12.0923 5.12166 11.3584C5.46027 10.5401 4.78291 10.1451 4.02113 9.83468L3.11816 9.49592C2.61017 9.27004 2.4973 9.83468 2.35639 9.77817C2.2717 9.74999 2.32821 9.6653 2.32821 9.6088C2.40955 9.48058 2.48489 9.34873 2.55409 9.21353C2.61059 9.10066 2.66696 9.01611 2.75151 8.81855C2.75151 8.76204 2.77969 8.76205 2.8362 8.76205C2.94907 8.81855 2.63878 9.0443 3.14649 9.24172L4.16219 9.66474V9.66502ZM4.16219 8.33888C3.42859 7.7462 3.37209 8.33888 3.17453 8.19768C3.14621 8.16532 3.14621 8.11704 3.17453 8.08481C3.23104 8.00012 3.31572 7.83075 3.37195 7.77424C3.39074 7.73657 3.4378 7.66137 3.51314 7.54864C3.59783 7.43576 3.62601 7.46395 3.73902 7.46395L6.58898 7.40744C6.67367 7.40744 6.75836 7.40744 6.7864 7.37926C6.7864 7.37926 6.75822 7.32275 6.67353 7.23806L5.37586 6.25054C5.03711 5.96843 4.6985 6.39173 4.55758 6.30704C4.5294 6.27886 4.50108 6.25054 4.55758 6.19417C4.58577 6.13766 4.75514 5.96829 4.95256 5.74268C5.15012 5.54512 5.17845 5.48862 5.20663 5.46043C5.26313 5.40393 5.3195 5.43225 5.3195 5.43225C5.43237 5.54512 5.12208 5.74282 5.51706 6.0813L7.66175 7.77438C7.74644 7.83088 7.80294 7.85907 7.74644 7.91557C7.71825 7.94376 7.68993 7.94376 7.63357 7.94376L4.33184 8.02831C4.27534 8.02831 4.24715 8.05649 4.21897 8.05649C4.21897 8.08467 4.21897 8.113 4.27548 8.14118L5.5737 9.15703C6.3073 9.74971 6.3638 9.07234 6.53318 9.21353C6.58968 9.27004 6.53318 9.35473 6.50499 9.38291C6.36408 9.55229 6.30757 9.66502 6.22289 9.77789C6.1382 9.89077 6.08169 10.0601 5.997 10.1447C5.96882 10.1729 5.9405 10.2576 5.88413 10.2012C5.71476 10.0883 6.02533 9.80622 5.63021 9.49564L4.16233 8.33902L4.16219 8.33888ZM8.31037 6.56097C8.70563 7.0126 8.90305 6.53279 8.98774 6.64566C9.04424 6.70216 9.01592 6.73035 8.93123 6.81504C8.81836 6.89973 8.70535 6.98441 8.45157 7.2103C8.31037 7.32303 8.16946 7.46423 8.08477 7.54891C8.05659 7.5771 8.02827 7.54891 8.00008 7.52073C7.88721 7.40786 8.22596 7.29485 7.91539 6.92805L6.36338 5.1786C6.08113 4.83998 5.7707 5.23511 5.65783 5.1221C5.60133 5.06559 5.68602 5.00922 5.74252 4.9809C5.85539 4.86803 6.10932 4.64228 6.22219 4.5576C6.33506 4.44472 6.36338 4.44472 6.53248 4.27535C6.64535 4.19066 6.67367 4.16247 6.70186 4.21884C6.81473 4.33171 6.44793 4.44444 6.75836 4.7832L8.31037 6.56083V6.56097ZM10.427 5.74268C10.4552 5.8836 10.4552 5.91206 10.427 5.94024C10.3705 5.96843 10.3141 5.94024 10.1448 5.79905L7.71797 3.93645C7.5486 3.82358 7.49209 3.82358 7.29467 3.87994C7.29467 3.87994 7.23817 3.87994 7.20999 3.85176C7.15348 3.73889 7.29467 3.68238 7.35118 3.6542C7.46405 3.59769 7.5486 3.51301 7.74616 3.40027C7.94358 3.25908 8.05645 3.20271 8.11295 3.14621C8.22582 3.0897 8.25387 3.06166 8.28233 3.14621C8.36702 3.25908 8.11295 3.34377 8.22582 3.51301C8.28233 3.6542 8.45171 3.8233 8.70549 4.021L10.0318 5.06517C10.0599 5.09335 10.1165 5.12168 10.1165 5.12168C10.1446 5.09349 10.1165 5.03699 10.1165 5.0088L9.86252 3.42874C9.80602 3.06194 9.72133 2.9206 9.69315 2.86437C9.43908 2.46911 9.15698 2.83619 9.07229 2.695C9.01578 2.61031 9.12879 2.5538 9.18516 2.52562C9.29803 2.46911 9.43908 2.44093 9.55196 2.38442C9.66483 2.32792 9.74937 2.29974 9.83406 2.24351C9.91875 2.187 10.0034 2.10231 10.0599 2.21533C10.1164 2.32834 9.89057 2.3847 9.94707 2.695L10.427 5.74282V5.74268ZM11.6403 2.89256C11.6968 3.09012 11.6968 3.11844 11.8943 3.06194L12.1483 2.97725C12.5151 2.86437 12.3742 2.44107 12.4586 2.41289C12.4867 2.41289 12.5432 2.3847 12.5714 2.49758L12.8817 3.31586C12.9099 3.40055 12.9664 3.54147 12.8817 3.56979C12.7408 3.6263 12.7123 3.09012 12.2609 3.23117L11.9506 3.316C11.753 3.37251 11.8094 3.42887 11.8941 3.71099L12.0633 4.30367C12.148 4.58592 12.2045 4.75516 12.4866 4.67047C13.5308 4.33171 13.2768 3.73931 13.4461 3.71099C13.4743 3.6828 13.5026 3.71098 13.5308 3.79567C13.6436 4.16247 13.5308 4.67047 13.164 4.75516C12.5151 4.92453 12.261 5.00908 12.0634 5.09377C11.9225 5.12196 11.7813 5.20664 11.5274 5.29133C11.4992 5.31952 11.4427 5.29133 11.4427 5.26315C11.358 5.03727 11.7813 5.15028 11.5839 4.58606L10.9065 2.3847C10.7656 1.9614 10.3422 2.30001 10.2857 2.10245C10.2857 2.07427 10.2857 2.01776 10.3704 2.01776C10.5398 1.96126 10.822 1.82034 11.4709 1.62278C11.7812 1.53823 12.0633 1.4534 12.4304 1.34067C12.4869 1.31249 12.5151 1.34067 12.5432 1.39718L12.6844 1.84867C12.7126 1.90517 12.7973 2.04623 12.6844 2.10259C12.4869 2.1591 12.6563 1.48187 11.838 1.73579C11.33 1.90517 11.33 1.93335 11.4147 2.24379L11.6403 2.89284V2.89256ZM13.9542 1.65097C13.926 1.11493 13.4462 1.36885 13.4462 1.19948C13.4462 1.14297 13.4744 1.11479 13.5309 1.11479C13.7285 1.0866 13.7568 1.0866 14.0389 1.05828C14.3492 1.0301 14.6316 0.973593 14.9419 0.94541C15.9013 0.888904 16.0424 1.59446 16.0424 1.79216C16.0706 2.13078 15.9577 2.30015 15.8448 2.44107C15.732 2.55394 15.5909 2.61045 15.5909 2.66695C15.5909 2.69514 16.0424 3.4572 16.4092 4.04974C16.4657 4.13443 16.5505 4.10625 16.5786 4.10625C16.6351 4.10625 16.6634 4.07806 16.7199 4.07806C16.7478 4.07806 16.7761 4.10625 16.7761 4.13457C16.7761 4.27548 16.494 4.41668 16.3248 4.41668C15.986 4.44486 15.7886 4.07806 15.6474 3.79581L15.2241 3.06221C15.0832 2.83633 15.0266 2.80815 14.8008 2.83633C14.5749 2.83633 14.6033 2.86451 14.6033 3.03389L14.6598 3.88036C14.7163 4.41654 15.1112 4.19066 15.1394 4.36003C15.1394 4.38822 15.1112 4.41654 14.9982 4.44472C14.9417 4.44472 14.7443 4.47291 14.5467 4.47291C14.3209 4.50109 14.1799 4.5576 13.9541 4.58578C13.9259 4.58578 13.8132 4.61382 13.8132 4.50109C13.8132 4.35989 14.2084 4.5576 14.1234 3.79553L13.9539 1.65083L13.9542 1.65097ZM16.8042 3.42887C16.8042 3.34419 16.7477 3.20299 16.8607 3.23131C16.9452 3.23131 16.9452 3.2595 16.9452 3.34419C17.0584 3.82386 17.2838 4.27535 17.7636 4.33185C18.1023 4.36003 18.3844 4.16247 18.4407 3.76749C18.4689 3.34419 18.1867 3.2595 17.5378 2.83633C17.171 2.63891 16.9168 2.41303 16.9734 1.90517C17.0299 1.34081 17.3968 0.945549 17.9046 1.00206C18.2714 1.03024 18.4689 1.22794 18.5816 1.25598C18.6381 1.25598 18.7792 1.17143 18.8357 1.17143C18.8922 1.19962 18.8922 1.25598 18.8922 1.36885L18.8357 2.07427C18.8357 2.15896 18.8357 2.21546 18.7226 2.21546C18.638 2.21546 18.638 1.28431 17.9044 1.2278C17.6223 1.19962 17.3964 1.36899 17.3682 1.67929C17.3401 2.0179 17.5658 2.10259 18.1303 2.44107C18.5816 2.72332 18.8357 2.94906 18.7792 3.56993C18.7227 4.21898 18.2712 4.6141 17.7069 4.5576C17.4532 4.52941 17.2273 4.38822 16.9731 4.30367C16.8604 4.27548 16.8886 4.21898 16.8604 4.10611L16.8042 3.42915V3.42887ZM19.7108 4.35989C19.5414 4.95258 20.0494 4.86789 19.9929 5.00894C19.9929 5.06545 19.9367 5.09363 19.852 5.06545C19.6826 5.00894 19.5417 4.95272 19.2031 4.83985C19.0337 4.78334 18.8363 4.75516 18.7231 4.72697C18.6952 4.72697 18.6952 4.67047 18.6952 4.64228C18.7514 4.50137 19.0338 4.69879 19.1747 4.2473L19.8518 1.98972C19.965 1.56642 19.4566 1.53823 19.5132 1.36885C19.5132 1.31235 19.6259 1.34067 19.6541 1.36885C19.8235 1.39704 19.9927 1.45354 20.1621 1.51005C20.3034 1.53823 20.4446 1.59474 20.6983 1.65097C20.8114 1.70747 20.8396 1.70747 20.8114 1.76384C20.7549 1.93321 20.5007 1.67915 20.3598 2.13064L19.7108 4.36003V4.35989ZM22.3069 2.92074C22.4197 2.69514 22.3915 2.66681 22.2221 2.58212L21.9118 2.41275C21.4602 2.18686 21.2625 2.86424 21.0934 2.75136C21.0089 2.72318 21.0652 2.63849 21.1216 2.58199L21.4602 2.04581C21.4884 1.9893 21.5167 1.93294 21.5734 1.96112C21.9401 2.15868 22.2223 2.24337 22.7866 2.5538C23.3793 2.83591 23.6331 3.00529 23.9999 3.20271C24.0564 3.2309 24.0281 3.2874 23.9999 3.34391L23.859 3.73889C23.8308 3.7954 23.7741 3.99282 23.6896 3.93645C23.5202 3.85176 23.8871 3.42846 23.4355 3.23103L23.0969 3.06166C22.956 2.97697 22.8993 2.94878 22.7866 3.14621L21.7988 5.14972C21.5167 5.6859 22.0813 5.82709 22.0247 5.93996C21.9682 6.05284 21.912 6.02465 21.7706 5.93996C21.6297 5.82709 21.517 5.77059 21.2345 5.62939C20.9808 5.51652 20.8396 5.46001 20.6704 5.37546C20.6139 5.34728 20.5291 5.31896 20.5856 5.20609C20.6704 5.03671 21.009 5.4882 21.2626 4.95216L22.3071 2.9206L22.3069 2.92074ZM24.4235 4.04946C24.508 3.68266 24.2259 3.59797 24.3386 3.4851C24.3668 3.4286 24.3951 3.45692 24.4795 3.51328C24.536 3.56979 24.7336 3.71085 24.8463 3.79553C25.0157 3.88022 25.1004 3.96491 25.3263 4.13429C25.3542 4.16247 25.3542 4.1908 25.3263 4.21898C25.2698 4.30367 25.1004 4.10611 24.9874 4.33185C24.9595 4.36003 24.9312 4.41654 24.8747 4.52941L24.621 5.48889C24.5645 5.65827 24.5645 5.74296 24.5928 5.74296C24.5928 5.77114 24.6491 5.77114 24.7622 5.71478L25.5803 5.3198C25.7497 5.26329 25.7779 5.20692 25.8062 5.1786C26.0038 4.92467 25.6369 4.69893 25.7497 4.55773C25.7779 4.52955 25.8062 4.52955 25.8629 4.55773C25.8911 4.58592 25.9474 4.67061 26.145 4.81166C26.399 5.03755 26.4275 5.12223 26.5402 5.20692C26.5684 5.23511 26.5967 5.26343 26.5684 5.29161C26.4836 5.3763 26.3709 5.15042 25.8347 5.43253L24.6214 5.99689C24.5083 6.05339 24.4801 6.08158 24.3674 6.19445L23.9157 6.78713C23.5209 7.2668 24.1698 7.32317 24.0006 7.52073C23.9724 7.54891 23.9157 7.52073 23.8597 7.46423C23.8315 7.43604 23.7469 7.32303 23.3801 7.04092C23.0694 6.78699 22.9567 6.73063 22.8719 6.64594C22.8156 6.61775 22.7873 6.56125 22.8156 6.53307C22.9565 6.36369 23.1259 6.89987 23.521 6.39215L23.9159 5.91248C24.029 5.77128 24.029 5.7431 24.0572 5.63023L24.424 4.0496L24.4235 4.04946ZM28.797 7.91557C29.2486 8.64917 28.9945 9.55215 28.1199 10.0883C27.5272 10.4271 26.3139 10.7657 25.6084 9.58033C25.157 8.81855 25.4675 8.00012 26.3138 7.49213C27.2168 6.95595 28.2327 7.04064 28.797 7.91557ZM28.9101 11.1042C28.7126 11.1889 28.656 11.1889 28.7407 11.3581L28.8253 11.6404C28.9384 12.0072 29.3615 11.8662 29.3896 11.9509C29.4178 11.9791 29.4178 12.0074 29.3051 12.0638L28.4867 12.3741C28.4302 12.4023 28.2608 12.487 28.233 12.3741C28.2048 12.2329 28.7126 12.2047 28.5716 11.7532L28.4868 11.4429C28.402 11.2455 28.3741 11.3017 28.0916 11.3864L27.4145 11.6123C26.8783 11.7817 27.1886 12.205 27.0477 12.2612C26.9631 12.2894 26.9631 12.2047 26.9349 12.0918C26.8784 11.9225 26.8218 11.8379 26.7374 11.6122C26.6809 11.4428 26.5965 11.2736 26.5115 11.0478C26.4833 10.9913 26.5115 10.9631 26.5397 10.9631C26.7372 10.8786 26.5962 11.3019 27.1607 11.1043L29.3896 10.3706C29.8131 10.2297 29.4745 9.83454 29.6717 9.74985C29.6999 9.74985 29.7566 9.77803 29.7849 9.83454C29.8414 10.0039 29.9825 10.2578 30.1802 10.9069C30.2929 11.2172 30.3777 11.4996 30.5188 11.8664C30.5188 11.9229 30.4906 11.9792 30.4623 11.9792L29.9827 12.1767C29.8979 12.2049 29.7569 12.2614 29.7287 12.1767C29.6722 11.9792 30.3214 12.1202 30.039 11.3019C29.926 10.9632 29.7662 10.8316 29.5594 10.9069L28.9101 11.1043V11.1042ZM2.04596 17.9615C2.10246 17.9333 2.24352 17.8483 2.27184 17.9615C2.27184 18.0177 2.24366 18.046 2.18715 18.0742C1.76385 18.3001 1.36887 18.6669 1.48174 19.1466C1.53825 19.4852 1.84854 19.6827 2.21534 19.6261C2.61059 19.5134 2.63864 19.2312 2.80801 18.4692C2.92088 18.0739 3.06194 17.7638 3.54161 17.6789C4.10596 17.538 4.58577 17.7921 4.69864 18.2999C4.75514 18.6667 4.61395 18.8926 4.64213 19.0054C4.67032 19.0619 4.755 19.1463 4.755 19.2029C4.78319 19.2875 4.6985 19.2875 4.58563 19.3157L3.96477 19.485C3.8519 19.5415 3.79539 19.5415 3.79539 19.4288C3.76735 19.344 4.64213 19.0899 4.47276 18.3283C4.41625 18.0457 4.19051 17.9048 3.88008 17.9615C3.54133 18.046 3.54133 18.3001 3.37209 18.9207C3.25922 19.4289 3.11816 19.7676 2.4973 19.8803C1.87644 20.0212 1.36845 19.7676 1.25558 19.2032C1.19908 18.9491 1.25558 18.667 1.25558 18.3848C1.28377 18.272 1.31209 18.272 1.42496 18.2154L2.04582 17.9615H2.04596ZM3.0618 21.0934C3.03362 21.0372 2.97711 20.9525 2.6385 21.0089C2.55381 21.0089 2.35625 21.0089 2.2717 21.0651C1.93295 21.2064 2.24352 21.6013 2.13051 21.6578C2.04582 21.7143 2.01764 21.5732 1.96113 21.4884C1.90463 21.3475 1.87644 21.2063 1.81994 21.065C1.76343 20.924 1.73525 20.7829 1.67874 20.6701C1.65056 20.6136 1.62224 20.557 1.67874 20.5288C1.79162 20.4726 1.84812 20.6982 2.13023 20.6982L5.26258 20.6419C5.34726 20.6419 5.46013 20.6138 5.46013 20.6701C5.48832 20.7263 5.46013 20.7263 5.34726 20.8395L3.20257 23.0969C2.94865 23.3795 3.20257 23.5204 3.06138 23.5765C2.97669 23.6047 2.97669 23.5765 2.92019 23.4637C2.86368 23.3228 2.80732 23.2379 2.6943 22.9842C2.58143 22.7866 2.46842 22.6456 2.44038 22.5326C2.38387 22.448 2.35569 22.4198 2.44038 22.3917C2.55325 22.3352 2.63794 22.6175 2.92005 22.5044C3.00474 22.4765 3.03292 22.4198 3.14593 22.335C3.42818 22.0247 3.48468 21.9964 3.42818 21.8837L3.06138 21.0934H3.0618ZM3.96477 23.3795C4.02127 23.3513 4.10596 23.2097 4.16219 23.2946C4.21869 23.3511 4.19037 23.4074 4.134 23.4356C3.8519 23.8308 3.65434 24.3385 3.93658 24.7055C4.16219 24.988 4.50094 25.0723 4.81137 24.8464C5.15012 24.5927 5.03725 24.3384 4.89606 23.5486C4.81137 23.1251 4.81137 22.8148 5.23481 22.5043C5.6863 22.1656 6.22247 22.1656 6.53276 22.5891C6.75864 22.8712 6.70214 23.1534 6.75864 23.2662C6.81515 23.3227 6.92802 23.351 6.95606 23.4071C7.01257 23.4636 6.92788 23.4919 6.84319 23.5765L6.36352 23.9999C6.27883 24.0847 6.22233 24.1126 6.16596 24.0281C6.10946 23.9433 6.78682 23.351 6.33534 22.7299C6.16596 22.504 5.91204 22.4477 5.62993 22.6453C5.376 22.8426 5.46055 23.0683 5.60175 23.7177C5.6863 24.2538 5.6863 24.5925 5.17845 24.9593C4.67046 25.3545 4.07792 25.2979 3.7393 24.8461C3.56993 24.6206 3.45706 24.3666 3.37251 24.1407C3.316 24.028 3.37251 23.9998 3.4572 23.9152L3.96491 23.379L3.96477 23.3795ZM7.71797 25.891C7.68979 25.891 7.57678 25.891 7.5486 25.9189C7.52041 25.9471 7.52042 26.032 7.49209 26.1448L7.29453 27.6121C7.20985 28.2331 7.46391 28.1765 7.4074 28.2892C7.4074 28.3457 7.4074 28.374 7.32272 28.3174C7.23803 28.2328 7.15334 28.2046 7.06879 28.1198C6.9841 28.0633 6.89942 28.0071 6.81487 27.9223C6.73018 27.866 6.702 27.8377 6.73018 27.6964L6.98424 26.1445C6.98424 26.0318 7.01243 25.9751 6.98424 25.9751C6.95606 25.9469 6.84305 25.9469 6.702 25.9751C6.58912 26.0033 6.5608 26.0316 6.50444 26.116L6.08113 26.624C5.77084 26.9347 6.19401 27.104 6.08113 27.245C6.05295 27.2732 6.02463 27.2732 5.94022 27.2168C5.85553 27.1323 5.74266 26.991 5.57342 26.8216C5.40405 26.7088 5.29118 26.5679 5.17817 26.483C5.12166 26.4267 5.09348 26.3702 5.09348 26.342C5.26285 26.1727 5.2909 26.6807 5.77084 26.1162L7.23817 24.4515C7.63343 23.9999 7.15348 23.9154 7.29467 23.7461C7.32286 23.6896 7.37936 23.7179 7.40754 23.7461C7.46405 23.8024 7.6051 23.9716 7.77434 24.1692C7.9719 24.3385 8.11309 24.4794 8.19764 24.536C8.22582 24.5641 8.25415 24.5925 8.22582 24.6491C8.08491 24.79 7.99994 24.395 7.66147 24.79L6.92774 25.6365C6.89955 25.693 6.84305 25.7213 6.87123 25.7492C6.87123 25.7774 6.92774 25.7492 7.01243 25.7492L7.85889 25.6647C8.02813 25.6365 8.67717 25.5798 8.81836 25.4106C8.90305 25.2979 8.64899 25.157 8.70549 25.072C8.762 25.0158 8.79018 25.0438 8.84641 25.072C8.87459 25.1002 9.04397 25.2696 9.18516 25.3545C9.26985 25.4107 9.43908 25.5518 9.60846 25.6648C9.63664 25.693 9.69315 25.7213 9.63664 25.8057C9.55196 25.8906 9.55196 25.6364 8.93123 25.7212L7.71797 25.8906V25.891ZM9.04424 28.0072C8.98774 27.979 8.87487 27.9507 8.64899 28.1766C8.56444 28.2612 8.42338 28.3742 8.36688 28.4869C8.22569 28.7972 8.67717 28.9385 8.6208 29.0513C8.56444 29.164 8.47989 29.0231 8.39492 28.9947C8.25373 28.9102 8.141 28.8538 8.02813 28.7693C7.88721 28.6561 7.83071 28.6279 7.71783 28.5717C7.66133 28.5435 7.60496 28.5152 7.63315 28.4586C7.68965 28.374 7.88707 28.5151 8.11281 28.3177L10.4831 26.3141C10.5396 26.2576 10.596 26.2014 10.6525 26.2296C10.6807 26.2296 10.709 26.2575 10.6807 26.399L10.3139 29.6158C10.2857 29.9825 10.5961 29.926 10.5113 30.0671C10.4831 30.1519 10.4267 30.1236 10.3419 30.0671C10.2007 29.9826 10.088 29.8977 9.83392 29.785C9.66455 29.6718 9.52363 29.6156 9.41062 29.5591C9.32593 29.5309 9.26943 29.5029 9.32593 29.4464C9.38244 29.3332 9.63622 29.5029 9.77742 29.2488C9.8056 29.164 9.83392 29.0513 9.86211 28.9385C9.89029 28.5151 9.91861 28.4586 9.8056 28.4023L9.04397 28.0071L9.04424 28.0072ZM12.5714 27.6966C12.6279 27.4712 12.6561 27.3299 12.4867 27.2736L12.1199 27.1888C11.6403 27.0479 11.612 27.6687 11.4144 27.6122C11.3297 27.5841 11.3862 27.4995 11.4144 27.4429L11.6403 26.8785C11.6403 26.822 11.6685 26.7658 11.725 26.7658C12.1202 26.8785 12.3458 27.0194 12.9667 27.1888C13.5876 27.3582 13.8978 27.3864 14.2646 27.4429C14.3493 27.4429 14.3211 27.5274 14.3211 27.5838L14.2365 28.0354C14.2365 28.0916 14.2365 28.2891 14.1236 28.2609C13.9542 28.2046 14.2365 27.7247 13.7286 27.612L13.39 27.4992C13.1924 27.471 13.1359 27.612 13.0794 27.8378L12.5151 29.9541C12.3457 30.5468 12.9384 30.5468 12.91 30.6878C12.8819 30.8006 12.7972 30.7724 12.6561 30.7443C12.4867 30.6878 12.3455 30.6312 12.0634 30.5468C11.7813 30.4619 11.6401 30.4619 11.471 30.4054C11.3864 30.3775 11.3298 30.3775 11.3582 30.2645C11.4147 30.0951 11.8097 30.4339 11.979 29.8693L12.5714 27.6968V27.6966ZM17.2558 28.6845C17.2558 28.7126 17.2558 28.8254 17.1993 28.8254C17.1145 28.8254 17.0866 28.7408 17.0584 28.6845C16.8325 28.2049 16.4657 27.7815 15.9295 27.7815C15.3087 27.7815 14.9419 28.4586 14.9419 29.1079C14.9419 29.8133 15.2806 30.7725 16.1271 30.7725C16.8042 30.7725 17.1146 30.1236 17.2276 30.1236C17.2558 30.1236 17.2838 30.1518 17.2838 30.1801C17.2838 30.3777 16.8325 31.1111 15.8732 31.1111C14.6033 31.1111 14.4058 29.8695 14.4058 29.4747C14.4058 28.6563 14.8575 27.5557 15.9578 27.5557C16.494 27.5557 16.8326 27.8944 16.9737 27.8944C17.0585 27.8944 17.0585 27.6689 17.1146 27.6689C17.1428 27.6689 17.1711 27.6689 17.1711 27.6968L17.2557 28.6846L17.2558 28.6845ZM21.0372 29.5592C21.2066 30.1519 21.6013 29.8695 21.6579 30.0672C21.6579 30.1237 21.6297 30.1237 21.5734 30.1521C21.432 30.1803 21.1781 30.2086 21.009 30.2648C20.8396 30.293 20.6983 30.378 20.4728 30.4342C20.4163 30.4342 20.388 30.4342 20.3597 30.378C20.3315 30.2366 20.6704 30.2648 20.5572 29.8136L20.3314 28.9667C20.2751 28.7694 20.2751 28.7131 20.1059 28.7412L18.9487 29.0515C18.7512 29.108 18.7512 29.1364 18.8078 29.3618L19.0054 30.0956C19.1463 30.6882 19.6261 30.3781 19.6824 30.5472C19.6824 30.5754 19.7106 30.6034 19.5697 30.6599C19.4003 30.6881 19.259 30.7164 18.9487 30.8008C18.7512 30.829 18.5819 30.914 18.3844 30.9418C18.3281 30.9699 18.2716 30.9699 18.2716 30.9139C18.2151 30.7163 18.6102 30.8007 18.4692 30.2084L17.933 28.0918C17.7636 27.471 17.425 27.7532 17.3687 27.6122C17.3405 27.4995 17.4814 27.4995 17.5662 27.4713C17.7071 27.4431 17.8483 27.4431 18.0742 27.3865C18.3283 27.3583 18.3563 27.3583 18.5537 27.3019C18.6102 27.2738 18.6669 27.3019 18.6669 27.3298C18.7231 27.4712 18.3283 27.4712 18.441 27.8942L18.6386 28.6563C18.6667 28.7694 18.6951 28.8256 18.7795 28.8256L20.0494 28.487C20.1903 28.4589 20.1903 28.3461 20.1621 28.2334L19.9927 27.5841C19.8518 27.0479 19.4005 27.3019 19.3438 27.161C19.3438 27.0762 19.372 27.0762 19.4284 27.0762C19.5982 27.0197 19.7391 26.9635 19.9927 26.8786C20.1621 26.8221 20.3314 26.7377 20.5289 26.6528C20.5854 26.6528 20.6137 26.6528 20.6137 26.7093C20.6702 26.8786 20.3034 26.8786 20.5006 27.3582L21.0369 29.5591L21.0372 29.5592ZM22.3632 27.2452C22.448 27.4145 22.4763 27.4427 22.6457 27.3579L22.8712 27.217C23.2098 27.0194 22.9843 26.6243 23.0405 26.5681C23.0687 26.5681 23.1254 26.5116 23.1819 26.6243L23.6614 27.358C23.7179 27.4145 23.8308 27.5556 23.7179 27.6121C23.6048 27.6686 23.4354 27.1608 23.0404 27.4145L22.7868 27.5839C22.6174 27.6966 22.6458 27.7248 22.7868 27.9792L23.1254 28.5154C23.2947 28.7694 23.3512 28.9106 23.6334 28.7412C24.5645 28.1769 24.1695 27.6689 24.3104 27.5841C24.3386 27.5841 24.3669 27.5559 24.4236 27.6406C24.6212 27.9792 24.593 28.4587 24.2823 28.6281C23.7182 28.9949 23.4924 29.108 23.2947 29.2208C23.182 29.3056 23.0407 29.4183 22.8431 29.5311C22.7869 29.5592 22.7586 29.5592 22.7304 29.5311C22.6177 29.3335 23.0407 29.3902 22.7304 28.8822L21.5171 26.9351C21.2346 26.4272 20.8961 26.7942 20.7834 26.6526C20.7834 26.5964 20.7834 26.5399 20.8399 26.5117C20.9808 26.4272 21.3479 26.3423 21.9122 25.9755C22.1659 25.8061 22.3918 25.6652 22.6739 25.4393C22.7304 25.4112 22.787 25.4393 22.8152 25.4675L23.1255 25.9755C23.182 26.0037 23.2664 26.1449 23.182 26.2014C23.0126 26.3141 22.9561 25.6087 22.2509 26.0605C21.7709 26.3426 21.8274 26.3708 21.9968 26.6528L22.3636 27.2456L22.3632 27.2452ZM25.8908 26.0604C25.947 26.1166 26.0035 26.1449 26.0317 26.1166V26.0604L25.5801 24.9598C25.5238 24.9033 25.4955 24.7904 25.4673 24.7904C25.4392 24.7339 25.3264 24.7056 25.2415 24.6495L24.5926 24.3106C24.3667 24.1979 24.2539 24.4238 24.1691 24.3388C24.1409 24.2826 24.1691 24.2261 24.1973 24.2261C24.2255 24.1696 24.31 24.0852 24.5076 23.8875C24.7616 23.6049 24.7616 23.5767 24.8183 23.5207C24.8462 23.4925 24.9028 23.4642 24.931 23.4925C25.0438 23.6052 24.8462 23.7465 24.9592 23.8593C24.9871 23.8875 25.0719 23.9438 25.1568 24.0002L26.7935 24.8467C26.9344 24.9032 27.0189 24.988 27.0471 24.9598C27.0753 24.9316 27.0189 24.8467 26.9344 24.7057L26.229 23.3797C26.1725 23.2666 26.0314 23.069 25.9183 22.8998C25.6928 22.5895 25.4387 23.0692 25.3539 22.9846C25.2977 22.9281 25.2977 22.8998 25.3539 22.8433C25.3821 22.8154 25.4952 22.646 25.5798 22.533C25.7207 22.3075 25.7492 22.2227 25.8057 22.1662C25.8339 22.138 25.8622 22.11 25.8905 22.1662C25.975 22.251 25.7773 22.251 26.0878 22.7306L27.6399 25.637C27.6681 25.6936 27.6681 25.7219 27.6399 25.778C27.5834 25.8061 27.5551 25.8061 27.4424 25.7498L25.8339 24.9316H25.7773C25.7492 24.9598 25.7773 24.9881 25.7773 24.9881L26.5111 26.7659C26.5393 26.8505 26.5676 26.8786 26.5111 26.9068C26.4829 26.9633 26.4546 26.935 26.3417 26.8786L23.4917 25.4395C23.1815 25.2419 23.0683 25.4395 22.9838 25.3549C22.9272 25.3268 22.9556 25.2701 22.9838 25.2418C23.04 25.1853 23.2092 25.1009 23.3505 24.9597C23.6327 24.6771 23.6608 24.6771 23.7173 24.6211C23.7455 24.5929 23.8019 24.5646 23.8301 24.5929C23.9428 24.7056 23.7455 24.8465 23.8583 24.9597C23.8864 25.0162 23.9992 25.0724 24.1119 25.1572L25.8904 26.0602L25.8908 26.0604ZM27.9223 23.0688C27.8941 23.1536 27.8661 23.2381 28.0917 23.4922C28.1765 23.5487 28.2893 23.6898 28.3742 23.7463C28.6845 23.9156 28.8537 23.4637 28.9665 23.5487C29.0513 23.5766 28.9665 23.6896 28.9103 23.7742C28.8537 23.8873 28.7689 24.0001 28.6844 24.1128C28.6279 24.2259 28.5995 24.3669 28.515 24.4796C28.4868 24.5078 28.4585 24.5927 28.4018 24.5644C28.3173 24.5079 28.4583 24.3103 28.2609 24.0849L26.2856 21.6013C26.2294 21.5167 26.1447 21.4604 26.1729 21.4037C26.2011 21.3758 26.2294 21.3758 26.3704 21.4037L29.559 21.8272C29.9258 21.8837 29.8976 21.5735 30.0385 21.6578C30.0951 21.7143 30.0667 21.7426 30.0106 21.8272C29.9258 21.9681 29.8693 22.0812 29.7281 22.3352C29.6154 22.5045 29.5587 22.6459 29.5022 22.7586C29.446 22.8151 29.446 22.8713 29.3613 22.8432C29.2486 22.7869 29.4461 22.5329 29.1919 22.3918C29.1074 22.3353 28.9944 22.3073 28.8817 22.2791C28.4582 22.2226 28.4017 22.2226 28.3455 22.3353L27.9222 23.0689L27.9223 23.0688ZM27.8939 20.1904C26.9628 19.9929 27.0474 20.5291 26.8215 20.473C26.7936 20.473 26.737 20.4448 26.737 20.3881C26.7651 20.3036 26.8215 20.2188 26.8215 20.1627C26.878 20.0495 26.9063 19.9929 26.9628 19.7674C26.9907 19.6826 27.0191 19.6543 27.1322 19.598L29.6715 18.3281C29.7563 18.2716 29.8413 18.2433 29.8413 18.215C29.8413 18.1867 29.7848 18.1587 29.6715 18.1304L28.0914 17.7918C27.6401 17.6787 27.6119 18.2432 27.4425 18.1867C27.4143 18.1867 27.386 18.1587 27.386 18.1021C27.4142 18.0456 27.4425 17.9612 27.4708 17.6505C27.5271 17.3968 27.5271 17.1709 27.5271 17.1143C27.5552 17.0581 27.6119 17.0581 27.6119 17.0581C27.7528 17.0863 27.6401 17.4533 28.1199 17.5661L30.8005 18.1588C30.9136 18.1867 30.9414 18.215 30.9414 18.2433C30.9204 18.2859 30.8918 18.3242 30.8568 18.3565L27.8937 19.8802C27.8658 19.8802 27.8375 19.9083 27.8375 19.9367C27.8093 19.9648 27.8657 19.9648 27.8937 19.9929L29.5304 20.3315C30.4334 20.5574 30.2358 19.9367 30.4616 19.9651C30.5181 19.993 30.4898 20.106 30.4898 20.1627C30.4332 20.36 30.377 20.5013 30.3488 20.6422C30.3207 20.7831 30.3207 20.9243 30.2923 21.0375C30.2923 21.0654 30.2923 21.1784 30.2078 21.1502C30.0102 21.0937 30.1796 20.6986 29.6995 20.614L27.8934 20.1907L27.8939 20.1904Z" fill="#9C9DA1"/>
<path fill-rule="evenodd" clip-rule="evenodd" d="M14.5746 2.49743C14.5746 2.6103 14.744 2.6103 14.8568 2.58212C15.5342 2.55393 15.5342 2.27182 15.5057 1.98943C15.4776 1.50976 15.2235 1.17115 14.772 1.19933C14.6026 1.19933 14.4617 1.22751 14.4899 1.50962L14.5746 2.49729V2.49743ZM25.8903 9.60865C26.2851 10.2576 26.9626 10.1448 27.6681 9.72152C28.5991 9.15716 28.8249 8.42356 28.5145 7.94389C28.1193 7.29484 27.4422 7.46422 26.8213 7.8027C26.2006 8.1695 25.4669 8.93128 25.8903 9.60865ZM3.62581 21.6581C3.654 21.7429 3.654 21.799 3.7105 21.7708C3.76701 21.7429 3.82337 21.6862 3.85169 21.6581L4.52878 20.9526C4.52878 20.9245 4.55696 20.9245 4.52878 20.9245C4.52878 20.9057 4.50995 20.8963 4.47228 20.8963L3.54112 20.9245C3.48462 20.9526 3.40021 20.9526 3.3437 20.981C3.31552 20.981 3.34371 21.0375 3.37189 21.1219L3.62581 21.6581ZM9.80554 28.1199C9.89023 28.1481 9.91841 28.1765 9.94673 28.1481C9.97492 28.0916 9.97492 28.0354 10.0032 27.9506L10.0879 27.0194V26.9632C10.0691 26.9632 10.0409 26.9725 10.0032 26.9911L9.29769 27.5838C9.26951 27.6403 9.213 27.6686 9.18482 27.7247C9.15663 27.7812 9.213 27.8095 9.26951 27.8378L9.80568 28.1201L9.80554 28.1199ZM28.0628 22.3071C28.0909 22.2506 28.1193 22.194 28.0909 22.1658C28.0347 22.1376 27.9782 22.1376 27.8934 22.1095L26.9624 21.9964H26.9059C26.9059 22.0152 26.9153 22.0435 26.934 22.0812L27.5263 22.7866C27.5545 22.8429 27.5828 22.8994 27.6676 22.9276C27.6955 22.9557 27.7239 22.8994 27.7522 22.8427L28.0628 22.3071ZM12.571 11.8661C12.571 11.8661 12.7119 10.9349 12.6556 10.8784L12.9659 11.0193C12.8531 11.1887 12.8247 11.8658 12.8247 11.8658H12.5708L12.571 11.8661ZM12.7684 12.5998C12.8531 12.9666 13.1352 13.6722 13.2199 13.8416L12.6837 13.8981C12.599 13.5031 12.599 12.9104 12.5425 12.6001H12.7684V12.6V12.5998ZM13.3045 11.8661C13.3045 11.8661 13.4174 11.584 13.5585 11.584L13.4176 11.3299C13.0788 11.5275 13.0226 11.8661 13.0226 11.8661H13.3047H13.3045ZM13.1918 12.5998C13.3894 12.9101 14.0666 13.5028 14.1795 13.644L13.6715 13.8416C13.4439 13.4234 13.2087 13.0095 12.9661 12.5998H13.1917H13.1918ZM12.1478 12.5998C12.0349 12.9666 11.7528 13.6722 11.6963 13.8416L12.2043 13.8981C12.289 13.5031 12.3172 12.9104 12.3737 12.6001H12.1478V12.6V12.5998ZM11.6963 12.5998C11.4989 12.9101 10.8215 13.5028 10.7368 13.644L11.2448 13.8416C11.4142 13.4748 11.781 12.8819 11.9222 12.5998H11.6963ZM11.4987 12.3739H13.361V12.0918H11.4987V12.3739Z" fill="white"/>
<path fill-rule="evenodd" clip-rule="evenodd" d="M14.829 10.6245C14.7725 10.5398 14.5751 10.3142 14.4622 10.2012C14.4622 10.2012 13.8695 10.6245 13.6155 10.8785C13.3614 11.1326 13.3615 11.2453 13.4461 11.4994H13.4743C13.6717 11.725 13.8129 11.6968 14.1232 11.6123C14.4619 11.4994 15.0543 11.1326 15.0543 11.1326C15.0264 10.9913 14.8854 10.7372 14.8289 10.6245H14.829Z" fill="white"/>
<path fill-rule="evenodd" clip-rule="evenodd" d="M14.7159 10.4833C14.7159 10.4833 13.7565 11.0476 13.7848 11.217C13.8131 11.3864 14.0387 11.2735 14.0387 11.2735L14.9135 10.7655C14.9135 10.7655 14.857 10.5961 14.7161 10.4833H14.7159Z" fill="#9C9DA1"/>
<path fill-rule="evenodd" clip-rule="evenodd" d="M12.2894 11.8661C12.2894 11.8661 12.1482 10.9349 12.2047 10.8784L11.8944 11.0193C12.0073 11.1887 12.0354 11.8658 12.0354 11.8658H12.2894V11.8661ZM11.5557 11.8661C11.5557 11.8661 11.4428 11.584 11.3018 11.584L11.443 11.3299C11.7816 11.5275 11.8379 11.8661 11.8379 11.8661H11.5557Z" fill="white"/>
<path fill-rule="evenodd" clip-rule="evenodd" d="M11.4426 9.49575C11.5554 9.46756 11.8094 9.38287 11.9786 9.38287C11.9786 9.38287 12.2327 10.0602 12.2608 10.427C12.3173 10.7938 12.2608 10.8785 12.035 10.9913C11.7247 11.0478 11.6117 10.9631 11.4426 10.7092C11.2167 10.3989 10.9629 9.74967 10.9629 9.74967C11.0758 9.66512 11.3297 9.55225 11.4426 9.49575Z" fill="white"/>
<path fill-rule="evenodd" clip-rule="evenodd" d="M11.6123 9.43939C11.6123 9.43939 12.0356 10.4836 11.9226 10.5964C11.8096 10.7093 11.6687 10.4836 11.6687 10.4836L11.2734 9.5524C11.2734 9.5524 11.4428 9.46758 11.6122 9.43953L11.6123 9.43939Z" fill="#9C9DA1"/>
<path fill-rule="evenodd" clip-rule="evenodd" d="M10.0314 10.6245C10.0879 10.5398 10.2853 10.3142 10.3982 10.2012C10.3982 10.2012 10.9906 10.6245 11.2447 10.8785C11.4987 11.1325 11.4987 11.2453 11.414 11.4994H11.3859C11.1883 11.725 11.0472 11.6968 10.7368 11.6123C10.3982 11.4994 9.80566 11.1326 9.80566 11.1326C9.83385 10.9913 9.97504 10.7372 10.0315 10.6245H10.0314Z" fill="white"/>
<path fill-rule="evenodd" clip-rule="evenodd" d="M10.1448 10.4833C10.1448 10.4833 11.1043 11.0476 11.076 11.217C11.0477 11.3864 10.8221 11.2735 10.8221 11.2735L9.94727 10.7655C9.94727 10.7655 10.0035 10.5961 10.1447 10.4833H10.1448Z" fill="#9C9DA1"/>
<path fill-rule="evenodd" clip-rule="evenodd" d="M13.4176 9.49577C13.3047 9.43927 13.0226 9.3829 12.8814 9.35486C12.8814 9.35486 12.6275 10.0603 12.5711 10.4272C12.543 10.7658 12.5993 10.8787 12.8251 10.9914C13.1354 11.0479 13.2201 10.9633 13.4178 10.6811C13.6436 10.3989 13.8974 9.74998 13.8974 9.74998C13.7847 9.66529 13.5306 9.5241 13.4178 9.49591L13.4176 9.49577Z" fill="white"/>
<path fill-rule="evenodd" clip-rule="evenodd" d="M13.2484 9.43939C13.2484 9.43939 12.8251 10.4552 12.9381 10.5964C13.051 10.7093 13.1637 10.4836 13.1637 10.4836L13.5587 9.5524C13.5587 9.5524 13.4178 9.43953 13.2484 9.43953V9.43939Z" fill="#9C9DA1"/>
<path fill-rule="evenodd" clip-rule="evenodd" d="M19.7669 11.8661C19.7669 11.8661 19.8796 10.9349 19.8514 10.8784L20.1617 11.0193C20.0208 11.1887 20.0208 11.8658 20.0208 11.8658H19.7669V11.8661ZM19.9363 12.5998C20.0208 12.9666 20.3311 13.6722 20.3876 13.8416L19.8796 13.8981C19.7948 13.5031 19.7948 12.9104 19.7102 12.6001H19.9363V12.6V12.5998ZM20.4724 11.8661C20.4724 11.8661 20.6133 11.584 20.7261 11.584L20.5852 11.3299C20.2465 11.5275 20.1899 11.8661 20.1899 11.8661H20.4724ZM20.3593 12.5998C20.5852 12.9101 21.2341 13.5028 21.3471 13.644L20.8391 13.8416C20.6115 13.4234 20.3762 13.0095 20.1334 12.5998H20.3593ZM19.3153 12.5998C19.2307 12.9666 18.9485 13.6722 18.8639 13.8416L19.4001 13.8981C19.4563 13.5031 19.4846 12.9104 19.541 12.6001H19.3151V12.6L19.3153 12.5998ZM18.8921 12.5998C18.6945 12.9101 18.017 13.5028 17.9043 13.644L18.4123 13.8416C18.64 13.4234 18.8751 13.0095 19.1177 12.5998H18.8922H18.8921ZM18.6664 12.3739H20.5285V12.0918H18.6664V12.3739Z" fill="white"/>
<path fill-rule="evenodd" clip-rule="evenodd" d="M21.9961 10.6245C21.9399 10.5398 21.7702 10.3142 21.6575 10.2012C21.6575 10.2012 21.0368 10.6245 20.7827 10.8785C20.5286 11.1325 20.5286 11.2453 20.6418 11.4994C20.8672 11.725 20.9804 11.6968 21.2907 11.6123C21.6575 11.4994 22.2503 11.1326 22.2503 11.1326C22.1935 10.9913 22.0808 10.7372 21.9961 10.6245Z" fill="white"/>
<path fill-rule="evenodd" clip-rule="evenodd" d="M21.9118 10.4833C21.9118 10.4833 20.9521 11.0476 20.9521 11.217C20.9803 11.3864 21.2343 11.2735 21.2343 11.2735L22.0811 10.7655C22.0811 10.7655 22.0245 10.5961 21.9118 10.4833Z" fill="#9C9DA1"/>
<path fill-rule="evenodd" clip-rule="evenodd" d="M19.4561 11.8661C19.4561 11.8661 19.3434 10.9349 19.3716 10.8784L19.0609 11.0193C19.2022 11.1887 19.2022 11.8658 19.2022 11.8658H19.4561V11.8659V11.8661ZM18.7225 11.8661C18.7225 11.8661 18.6098 11.584 18.4971 11.584L18.638 11.3299C18.9766 11.5275 19.0332 11.8661 19.0332 11.8661H18.7225Z" fill="white"/>
<path fill-rule="evenodd" clip-rule="evenodd" d="M18.6102 9.49575C18.723 9.46756 19.0055 9.38287 19.1464 9.38287C19.1464 9.38287 19.4005 10.0602 19.4567 10.427C19.4849 10.7938 19.4285 10.8785 19.2031 10.9913C18.8928 11.0478 18.8078 10.9631 18.6104 10.7092C18.3845 10.3989 18.1309 9.74967 18.1309 9.74967C18.2432 9.66512 18.4975 9.55225 18.6102 9.49575Z" fill="white"/>
<path fill-rule="evenodd" clip-rule="evenodd" d="M18.7792 9.43939C18.7792 9.43939 19.2026 10.4836 19.0895 10.5964C18.9767 10.7093 18.864 10.4836 18.864 10.4836L18.4688 9.5524C18.4688 9.5524 18.6099 9.46758 18.779 9.43953L18.7792 9.43939Z" fill="#9C9DA1"/>
<path fill-rule="evenodd" clip-rule="evenodd" d="M17.2276 10.6245C17.2838 10.5398 17.4534 10.3142 17.5662 10.2012C17.5662 10.2012 18.1869 10.6245 18.441 10.8785C18.695 11.1325 18.695 11.2453 18.5819 11.4994C18.356 11.725 18.2433 11.6968 17.9048 11.6123C17.5662 11.4994 16.9736 11.1326 16.9736 11.1326C17.0301 10.9913 17.1429 10.7372 17.2277 10.6245H17.2276Z" fill="white"/>
<path fill-rule="evenodd" clip-rule="evenodd" d="M17.312 10.4833C17.312 10.4833 18.2716 11.0476 18.2431 11.217C18.2431 11.3864 17.989 11.2735 17.989 11.2735L17.1143 10.7655C17.1143 10.7655 17.1709 10.5961 17.3118 10.4833H17.312Z" fill="#9C9DA1"/>
<path fill-rule="evenodd" clip-rule="evenodd" d="M20.5855 9.49577C20.4728 9.43927 20.2187 9.3829 20.0493 9.35486C20.0493 9.35486 19.7953 10.0603 19.7672 10.4272C19.7107 10.7658 19.7951 10.8787 19.9927 10.9914C20.3034 11.0479 20.4161 10.9633 20.6137 10.6811C20.8112 10.3989 21.0932 9.74998 21.0932 9.74998C20.9523 9.66529 20.6982 9.5241 20.5855 9.49591V9.49577Z" fill="white"/>
<path fill-rule="evenodd" clip-rule="evenodd" d="M20.4164 9.43939C20.4164 9.43939 19.993 10.4552 20.1061 10.5964C20.2189 10.7093 20.3598 10.4836 20.3598 10.4836L20.755 9.5524C20.6565 9.48055 20.5384 9.44121 20.4164 9.43953V9.43939Z" fill="#9C9DA1"/>
<path fill-rule="evenodd" clip-rule="evenodd" d="M16.1553 22.2506C16.1553 22.2506 16.268 21.3194 16.2398 21.2628L16.5505 21.3759C16.4374 21.5735 16.4092 22.2507 16.4092 22.2507H16.1553V22.2506ZM16.3246 22.956C16.4374 23.3228 16.7199 24.0565 16.8042 24.2259L16.268 24.2824C16.1835 23.8871 16.1835 23.2946 16.1271 22.956H16.3246ZM16.889 22.2506C16.889 22.2506 17.0017 21.968 17.1145 21.9403L16.9736 21.7144C16.6633 21.8838 16.5783 22.2506 16.5783 22.2506H16.889ZM16.776 22.956C16.9736 23.2946 17.6508 23.8871 17.7638 24.0283L17.2276 24.2259C17.0582 23.8591 16.6914 23.2663 16.5505 22.956H16.776ZM15.7318 22.956C15.619 23.3228 15.3369 24.0565 15.2803 24.2259L15.7883 24.2824C15.873 23.8871 15.873 23.2946 15.9577 22.956H15.7318ZM15.2806 22.956C15.0831 23.2946 14.4057 23.8871 14.293 24.0283L14.8291 24.2259C14.9985 23.8591 15.3653 23.2663 15.5065 22.956H15.2806ZM15.0829 22.7301H16.9452V22.4481H15.0829V22.7301Z" fill="white"/>
<path fill-rule="evenodd" clip-rule="evenodd" d="M18.4127 21.0091C18.2988 20.861 18.1763 20.7196 18.0459 20.5857C18.0459 20.5857 17.4536 21.0091 17.1994 21.2628C16.9453 21.5169 16.9169 21.6296 17.03 21.8555V21.8837C17.2559 22.0812 17.3968 22.0812 17.7071 21.9682C18.0457 21.8555 18.6383 21.5169 18.6383 21.5169C18.5684 21.3452 18.493 21.176 18.4127 21.0091Z" fill="white"/>
<path fill-rule="evenodd" clip-rule="evenodd" d="M18.2999 20.8679C18.2999 20.8679 17.3403 21.432 17.3688 21.6014C17.3972 21.7708 17.6228 21.6579 17.6228 21.6579L18.4976 21.1499C18.4976 21.1499 18.441 20.9807 18.3001 20.8679H18.2999Z" fill="#9C9DA1"/>
<path fill-rule="evenodd" clip-rule="evenodd" d="M15.8449 22.2506C15.8449 22.2506 15.7321 21.3194 15.7602 21.2628L15.4781 21.4037C15.591 21.5735 15.6193 22.2506 15.6193 22.2506H15.8449ZM15.1397 22.2506C15.1397 22.2506 15.0268 21.968 14.8857 21.9403L15.0267 21.7144C15.3654 21.8838 15.4219 22.2506 15.4219 22.2506H15.1397Z" fill="white"/>
<path fill-rule="evenodd" clip-rule="evenodd" d="M15.0264 19.8801C15.1393 19.8236 15.3932 19.7674 15.5626 19.7392C15.5626 19.7392 15.8165 20.4446 15.8447 20.8116C15.9012 21.1502 15.8165 21.2629 15.6191 21.3759C15.3088 21.4321 15.1958 21.3477 14.9982 21.0652C14.8008 20.7831 14.5186 20.1342 14.5186 20.1342C14.6597 20.0495 14.9138 19.9086 15.0265 19.8801H15.0264Z" fill="white"/>
<path fill-rule="evenodd" clip-rule="evenodd" d="M15.196 19.8236C15.196 19.8236 15.6193 20.8397 15.5063 20.9808C15.3935 21.0935 15.2524 20.8681 15.2524 20.8681L14.8574 19.9369C14.8574 19.9369 15.0267 19.8236 15.196 19.8236Z" fill="#9C9DA1"/>
<path fill-rule="evenodd" clip-rule="evenodd" d="M13.6153 21.0091C13.6718 20.896 13.8411 20.6984 13.9539 20.5857C13.9539 20.5857 14.5747 21.0091 14.8287 21.2628C15.0827 21.5169 15.0827 21.6296 14.9698 21.8555V21.8837C14.7723 22.0812 14.6312 22.0812 14.3208 21.9682C13.954 21.8555 13.3613 21.5169 13.3613 21.5169C13.4178 21.3759 13.5589 21.1219 13.6154 21.0091H13.6153Z" fill="white"/>
<path fill-rule="evenodd" clip-rule="evenodd" d="M13.7005 20.8679C13.7005 20.8679 14.66 21.432 14.66 21.6014C14.6318 21.7708 14.3777 21.6579 14.3777 21.6579L13.5312 21.1499C13.5312 21.1499 13.5879 20.9807 13.7006 20.8679H13.7005Z" fill="#9C9DA1"/>
<path fill-rule="evenodd" clip-rule="evenodd" d="M16.974 19.8801C16.8894 19.8236 16.6072 19.7674 16.466 19.7392C16.466 19.7392 16.2119 20.4163 16.1557 20.7834C16.099 21.1502 16.1839 21.2629 16.4093 21.3761C16.72 21.4323 16.8046 21.3479 17.002 21.0653C17.2279 20.755 17.4815 20.1343 17.4815 20.1343C17.3408 20.0496 17.0871 19.9087 16.974 19.8803V19.8801Z" fill="white"/>
<path fill-rule="evenodd" clip-rule="evenodd" d="M16.8328 19.7959C16.8328 19.7959 16.3815 20.8401 16.5225 20.981C16.6352 21.0937 16.748 20.8401 16.748 20.8401L17.1432 19.9371C17.1432 19.9371 17.002 19.8238 16.8329 19.7959H16.8328ZM12.741 15.083L12.1201 16.0422V19.1747L15.5346 18.2999C15.5346 18.2999 16.0707 18.2151 16.0142 17.9047C16.0142 17.9047 15.7884 17.5379 15.224 17.5094C14.8007 17.4812 14.4057 17.5659 13.7284 17.9894C12.8254 18.5535 12.7407 18.1867 12.7407 18.1867V15.0829H12.7408L12.741 15.083Z" fill="#9C9DA1"/>
<path d="M11.6855 19.7504V15.9747H12.0918V16.0707H12.2161V19.0511L15.5106 18.207L15.5583 18.393L12.024 19.2985V16.1667H11.8775V19.5019L15.6514 18.5174L15.6998 18.7033L11.6855 19.7504Z" fill="white"/>
<path fill-rule="evenodd" clip-rule="evenodd" d="M16.0145 17.9048C16.0145 17.9048 15.3654 16.9452 13.7854 17.9613C12.8259 18.582 12.7412 18.1868 12.7412 18.1868V15.083C12.7412 15.083 12.9951 15.3369 13.7854 14.8571C15.3938 13.8695 16.0145 14.8006 16.0145 14.8006V17.9047V17.9048Z" fill="white"/>
<path d="M12.9575 18.4064C12.8997 18.4064 12.8484 18.3972 12.8036 18.3786C12.6755 18.3256 12.6493 18.2189 12.6466 18.2069L12.6445 18.197V14.8225L12.8072 15.0138C12.8279 15.0287 13.0673 15.1805 13.7349 14.7752C14.1114 14.5439 14.468 14.3966 14.7944 14.3374C15.0613 14.289 15.3089 14.2989 15.5306 14.367C15.9151 14.485 16.0866 14.737 16.0937 14.7476L16.1099 14.7717V18.2182L15.9345 17.9589C15.9297 17.952 15.776 17.7381 15.4515 17.6401C15.0108 17.5072 14.4523 17.6461 13.8366 18.0421C13.4618 18.2844 13.1673 18.4065 12.9576 18.4065L12.9575 18.4064ZM12.8364 18.1691C12.8417 18.178 12.8545 18.1935 12.8837 18.2038C12.9516 18.2278 13.1704 18.2443 13.7324 17.8807C14.1035 17.6421 14.4565 17.4903 14.7818 17.4295C15.0479 17.3796 15.2964 17.3901 15.5204 17.4604C15.6934 17.5147 15.8247 17.5963 15.9178 17.671V14.8333C15.8718 14.7776 15.7255 14.6243 15.4618 14.5467C15.0247 14.4182 14.4622 14.5538 13.8349 14.939C13.317 15.2534 13.0055 15.2704 12.8365 15.231V18.1691H12.8364Z" fill="white"/>
<path fill-rule="evenodd" clip-rule="evenodd" d="M19.3151 15.083L19.9361 16.0422V19.1747L16.4935 18.2999C16.4935 18.2999 15.9855 18.2151 16.0138 17.9047C16.0138 17.9047 16.2678 17.5379 16.8321 17.5094C17.2556 17.4812 17.6503 17.5659 18.3279 17.9894C19.2309 18.5535 19.3154 18.1867 19.3154 18.1867V15.0829H19.3153L19.3151 15.083Z" fill="#9C9DA1"/>
<path d="M20.3708 19.7504L16.3564 18.7033L16.4049 18.5174L20.1789 19.5019V16.1667H20.0322V19.2985L16.4981 18.393L16.5456 18.207L19.8402 19.0511V16.0707H19.9362V15.9747H20.3708V19.7504Z" fill="white"/>
<path fill-rule="evenodd" clip-rule="evenodd" d="M16.014 17.9048C15.9858 18.2151 16.5221 18.3001 16.5221 18.3001L19.9366 19.1749V16.0708H20.2752V19.6262L16.3811 18.6105C16.2397 18.7799 16.0141 18.7514 16.0141 18.7514C16.0141 18.7514 15.8166 18.7796 15.6754 18.6105L11.7812 19.6262V16.0708H12.12V19.1749L15.5345 18.3001C15.5345 18.3001 16.0706 18.2152 16.0141 17.9048H16.014Z" fill="white"/>
<path d="M11.6855 19.7501V15.9748H12.2159V19.0512L15.5151 18.206L15.5195 18.2053C15.5982 18.1926 15.8195 18.1357 15.8971 18.026C15.9089 18.0093 15.9165 17.9924 15.9201 17.9744C15.9169 17.9497 15.9163 17.9235 15.9187 17.896L15.9825 17.1952L16.1084 17.8875C16.1131 17.9127 16.1149 17.9377 16.1137 17.9623C16.1537 18.11 16.4323 18.1884 16.5373 18.2053L16.546 18.2071L19.8409 19.0512V15.9748H20.371V19.7501L16.4113 18.7172C16.2605 18.8556 16.0655 18.8514 16.0145 18.8475C15.9653 18.8514 15.7908 18.8541 15.645 18.7173L11.6857 19.7501H11.6855ZM16.3465 18.5023L16.4053 18.5177L20.1795 19.5022V16.1666H20.0326V19.2983L16.5026 18.3939C16.4596 18.3865 16.1795 18.3335 16.0228 18.1749C15.8775 18.3335 15.6045 18.3856 15.5541 18.3939L12.0243 19.2983V16.1666H11.8772V19.5022L15.7101 18.5023L15.749 18.5491C15.8531 18.6738 15.9992 18.6568 16.0006 18.6565L16.0133 18.6547L16.0261 18.6564C16.0327 18.6571 16.2028 18.6747 16.3075 18.5491L16.3465 18.5025V18.5023Z" fill="white"/>
<path fill-rule="evenodd" clip-rule="evenodd" d="M16.0137 17.9048C16.0137 17.9048 16.691 16.9452 18.2712 17.9613C19.2308 18.582 19.3154 18.1868 19.3154 18.1868V15.083C19.3154 15.083 19.0613 15.3369 18.2712 14.8571C16.6627 13.8695 16.0137 14.8006 16.0137 14.8006V17.9047V17.9048Z" fill="white"/>
<path d="M19.0989 18.4064C18.8892 18.4064 18.5945 18.2843 18.2195 18.0418C17.6036 17.6459 17.04 17.5069 16.5899 17.6403C16.2541 17.7398 16.0938 17.9582 16.0922 17.9605L15.9182 18.2021L15.918 17.9047V14.7705L15.9353 14.7458C15.9427 14.7352 16.1211 14.4842 16.5119 14.3666C16.7375 14.2988 16.9882 14.2887 17.2572 14.3371C17.5865 14.3963 17.9446 14.5438 18.3217 14.7752C18.9889 15.1804 19.2283 15.0285 19.249 15.0135L19.4168 14.8168L19.4117 15.0829V18.1967L19.4096 18.2066C19.4071 18.2186 19.3808 18.3252 19.2528 18.3783C19.208 18.3969 19.1566 18.4062 19.0987 18.4062L19.0989 18.4064ZM16.9458 17.3986C17.0506 17.3986 17.1589 17.409 17.2698 17.4295C17.5981 17.4903 17.9526 17.6421 18.3236 17.8805C18.886 18.2443 19.1046 18.2278 19.1725 18.2038C19.2017 18.1935 19.2145 18.178 19.2198 18.1691V15.231C19.051 15.2705 18.7395 15.2535 18.2219 14.9393C17.5937 14.5537 17.026 14.418 16.5796 14.547C16.3106 14.6247 16.1588 14.7779 16.1101 14.8344V17.6752C16.2058 17.5995 16.3421 17.5157 16.5221 17.4603C16.6556 17.4191 16.7974 17.3986 16.9458 17.3986Z" fill="white"/>
<path d="M19.8548 19.2259L19.2338 18.2381L19.3963 18.136L20.0173 19.1238L19.8548 19.2259ZM12.2008 19.2259L12.0382 19.1238L12.6591 18.136L12.8216 18.2381L12.2008 19.2259ZM12.1157 16.2356L11.9541 16.1319L12.6596 15.0312L12.8212 15.1349L12.1157 16.2356ZM19.9396 16.2356L19.2342 15.1349L19.3959 15.0314L20.1013 16.1322L19.9396 16.2357V16.2356Z" fill="white"/>
<path fill-rule="evenodd" clip-rule="evenodd" d="M15.9297 14.4058V17.623C16.0144 17.6509 16.0144 17.7357 16.0144 17.7357C16.0709 17.623 16.1272 17.623 16.1272 17.623V14.4058H15.9297Z" fill="#9C9DA1"/>
</g>
<defs>
<clipPath id="clip0_4958_24691">
<rect width="32" height="32" fill="white"/>
</clipPath>
</defs>
</svg>
