<svg width="32" height="32" viewBox="0 0 32 32" fill="none" xmlns="http://www.w3.org/2000/svg">
<path d="M15.9991 0C7.1021 0 3.41309 2.94831 3.41309 2.94831V16.2517C3.41309 23.5865 13.2505 31.209 15.9991 32C18.7478 31.209 28.5852 23.5865 28.5852 16.2517V2.94831C28.6575 2.94831 24.9685 0 15.9991 0Z" fill="#BDBDC0"/>
<path d="M14.4798 16.3943C14.5521 16.4662 14.5521 16.5381 14.5521 16.682C14.5521 16.8977 14.3351 17.1134 14.1181 17.1134C13.9011 17.1134 13.6841 16.8977 13.6841 16.682C13.6841 16.5381 13.7565 16.4662 13.8288 16.3943C13.4671 16.3224 13.1055 16.1786 13.1055 16.1786C13.1778 16.3943 13.3948 17.4011 14.0458 17.473C14.8415 17.5449 15.0585 16.8258 15.0585 16.8258C15.0585 16.8258 14.9138 16.5381 14.4798 16.3943Z" fill="#FAFBF6"/>
<path d="M18.2413 16.3246C18.386 16.3965 18.386 16.5403 18.386 16.6841C18.386 16.8998 18.169 17.1156 17.952 17.1156C17.735 17.1156 17.518 16.8998 17.518 16.6841C17.518 16.6122 17.5903 16.4684 17.5903 16.3965C17.1563 16.5403 17.084 16.756 17.084 16.756C17.084 16.756 17.301 17.4751 18.0967 17.4032C18.7477 17.3313 18.8923 16.3965 19.037 16.1088C18.9647 16.1088 18.603 16.2526 18.2413 16.3246Z" fill="#FAFBF6"/>
<path d="M19.0369 14.0953C18.7476 13.8795 18.4583 14.1672 18.6753 14.4548C18.8923 14.6706 19.0369 14.8144 18.9646 15.0301C18.8199 15.2458 17.6626 15.1739 16.0713 15.7492C14.5522 15.1739 13.3226 15.2458 13.1779 15.0301C13.1056 14.8863 13.2502 14.6706 13.4672 14.4548C13.7566 14.1672 13.3949 13.8795 13.1056 14.0953C12.8886 14.2391 12.4546 14.8144 12.5992 15.1739C12.8162 15.7492 14.1906 15.6054 15.9989 16.3245C17.8073 15.6054 19.1816 15.7492 19.3986 15.1739C19.6156 14.8144 19.2539 14.311 19.0369 14.0953Z" fill="#FAFBF6"/>
<path d="M17.3737 21.7165C17.1567 21.6446 16.7227 21.357 16.578 20.9255C16.5057 20.566 16.6504 20.2783 16.795 20.2064C16.9397 20.1345 17.1567 20.2783 17.0844 20.4941C17.012 20.6379 16.8674 20.7098 16.795 20.7817C16.7227 20.8536 16.795 20.9974 16.9397 20.9255C17.229 20.8536 17.3737 20.566 17.3737 20.3502C17.3737 19.9907 17.012 19.9188 16.795 19.9907C16.5057 20.0626 16.2164 20.3502 16.361 20.9255C16.5057 21.4289 16.9397 21.7165 17.229 21.8604C17.012 21.9323 16.578 22.0042 16.144 22.0761C15.71 22.0761 15.2037 22.0042 15.059 21.8604C15.276 21.7165 15.7824 21.5008 15.927 20.9255C16.0717 20.3502 15.8547 20.0626 15.493 19.9907C15.276 19.9188 14.9144 20.0626 14.9144 20.3502C14.9144 20.566 15.059 20.8536 15.3484 20.9255C15.493 20.9255 15.5654 20.8536 15.493 20.7817C15.4207 20.7098 15.276 20.6379 15.2037 20.4941C15.1314 20.2783 15.276 20.2064 15.493 20.2064C15.6377 20.2783 15.8547 20.4941 15.71 20.9255C15.5654 21.357 15.2037 21.5727 14.9144 21.7165C14.6974 21.7884 14.6974 22.0042 14.842 22.0761C15.276 22.2918 15.8547 22.3637 16.2164 22.3637C16.578 22.3637 17.229 22.2918 17.5907 22.0761C17.5907 22.0042 17.5907 21.7884 17.3737 21.7165Z" fill="#FAFBF6"/>
<path d="M16.072 4.16944C16.2167 4.16944 16.289 4.09753 16.4337 4.02562C16.4337 4.02562 16.4337 4.02562 16.506 3.95371C16.6507 3.80989 16.8677 3.52225 16.94 3.37843V3.30652C16.94 3.23461 16.7954 3.1627 16.7954 3.1627C16.723 3.09079 15.4934 3.09079 15.421 3.1627C15.3487 3.23461 15.2764 3.30652 15.2764 3.37843C15.3487 3.52225 15.638 3.8818 15.7104 3.95371C15.7827 4.09753 15.9274 4.16944 16.072 4.16944Z" fill="#FAFBF6"/>
<path d="M15.131 4.74508C15.131 4.67317 15.131 4.52935 15.131 4.38553V4.31362C15.0586 4.1698 14.7693 3.88216 14.697 3.73834H14.6246C14.5523 3.73834 14.48 3.81025 14.4076 3.81025C14.3353 3.88216 13.9736 4.96081 13.9736 5.10463C13.9736 5.17654 14.046 5.32037 14.1906 5.24846C14.3353 5.24846 14.7693 5.10463 14.914 5.03272C14.9863 4.96081 15.131 4.81699 15.131 4.74508Z" fill="#FAFBF6"/>
<path d="M15.4211 5.75141C15.3487 5.6795 15.2041 5.6795 15.0594 5.6795H14.9871C14.8424 5.6795 14.4084 5.82332 14.2637 5.89523L14.1914 5.96714C14.1914 6.03905 14.1914 6.11096 14.1914 6.18287C14.2637 6.25478 15.2041 6.90198 15.3487 6.97389C15.4211 6.97389 15.5657 6.97389 15.5657 6.83007C15.5657 6.68624 15.5657 6.25478 15.5657 6.11096C15.6381 5.96714 15.5657 5.82332 15.4211 5.75141Z" fill="#FAFBF6"/>
<path d="M16.5051 5.75236C16.4328 5.82427 16.3604 5.89618 16.2881 6.04V6.11191C16.2881 6.25573 16.2881 6.68719 16.2881 6.83101C16.2881 6.83101 16.2881 6.90292 16.3604 6.90292C16.4328 6.97483 16.5051 6.97483 16.5774 6.97483C16.7221 6.97483 17.6624 6.25573 17.7348 6.18382C17.7348 6.11191 17.8071 5.96809 17.6624 5.96809C17.5178 5.89618 17.0838 5.75236 16.9391 5.75236C16.7944 5.68045 16.6498 5.75236 16.5051 5.75236Z" fill="#FAFBF6"/>
<path d="M16.8672 4.81772C16.9395 4.88963 17.0119 5.03345 17.0842 5.10536C17.0842 5.10536 17.0842 5.10536 17.1565 5.10536C17.3012 5.17727 17.7352 5.32109 17.8799 5.32109H17.9522C18.0245 5.24918 18.0245 5.17727 18.0245 5.17727C18.0245 5.03345 17.6629 4.0267 17.5905 3.88288C17.5182 3.81097 17.3735 3.81097 17.3012 3.81097C17.1565 3.88288 16.9395 4.24243 16.8672 4.38625C16.8672 4.53007 16.8672 4.6739 16.8672 4.81772Z" fill="#FAFBF6"/>
<path d="M16.7225 4.88909C16.7225 4.81718 16.6502 4.81718 16.5779 4.74527C16.5779 4.67336 16.5779 4.67336 16.5779 4.60145C16.5779 4.52954 16.5055 4.38572 16.4332 4.38572C16.2885 4.31381 16.0715 4.31381 15.9992 4.38572C15.8545 4.31381 15.7099 4.31381 15.5652 4.38572C15.4929 4.45763 15.4205 4.52954 15.4205 4.60145C15.4205 4.67336 15.4205 4.74527 15.4205 4.81718L15.3482 4.88909C15.2759 4.961 15.2759 5.10482 15.3482 5.17673C15.4205 5.32055 15.5652 5.46437 15.7099 5.46437C15.7822 5.60819 15.9269 5.6801 16.0715 5.6801C16.2162 5.6801 16.3609 5.53628 16.4332 5.39246C16.5779 5.39246 16.7225 5.24864 16.7225 5.17673C16.7949 5.10482 16.7949 5.03291 16.7225 4.88909ZM15.7099 5.32055C15.6375 5.32055 15.5652 5.32055 15.5652 5.24864C15.5652 5.17673 15.5652 5.10482 15.6375 5.10482C15.7099 5.10482 15.7822 5.10482 15.7822 5.17673C15.8545 5.24864 15.7822 5.32055 15.7099 5.32055ZM15.7822 4.88909C15.7099 4.961 15.6375 4.88909 15.5652 4.88909C15.4929 4.81718 15.5652 4.74527 15.5652 4.74527C15.6375 4.67336 15.7099 4.74527 15.7822 4.74527C15.8545 4.74527 15.8545 4.81718 15.7822 4.88909ZM16.0715 5.53628C15.9992 5.53628 15.9269 5.46437 15.9269 5.39246C15.9269 5.32055 15.9992 5.24864 16.0715 5.24864C16.1439 5.24864 16.2162 5.32055 16.2162 5.39246C16.2162 5.46437 16.1439 5.53628 16.0715 5.53628ZM16.0715 4.81718C15.9992 4.74527 15.9992 4.67336 16.0715 4.67336C16.1439 4.60145 16.2162 4.60145 16.2885 4.67336C16.3609 4.74527 16.3609 4.81718 16.2885 4.81718C16.2162 4.81718 16.1439 4.81718 16.0715 4.81718ZM16.3609 5.17673C16.2885 5.17673 16.2885 5.10482 16.2885 5.03291C16.2885 4.961 16.3609 4.961 16.4332 4.961C16.5055 4.961 16.5055 5.03291 16.5055 5.10482C16.5055 5.17673 16.4332 5.17673 16.3609 5.17673Z" fill="#FAFBF6"/>
<path d="M9.05484 3.59674C8.69318 3.23719 8.47617 3.16528 8.40384 3.16528C8.33151 3.16528 8.25917 3.16528 8.11451 3.3091L8.04217 3.38101C7.89751 3.59674 7.6805 3.81247 7.2465 3.81247C7.10183 3.81247 6.95717 3.74056 6.8125 3.66865V6.61697C6.95717 6.8327 7.10183 6.97652 7.2465 6.97652C7.31884 6.97652 7.4635 6.90461 7.60817 6.76079C8.04217 6.32933 8.54851 6.25742 9.05484 6.54506V3.59674Z" fill="#FAFBF6"/>
<path d="M11.3699 3.88309C11.0082 3.88309 10.7912 3.66736 10.5742 3.45163L10.5019 3.37972C10.3572 3.2359 10.2849 3.2359 10.2125 3.2359C10.1402 3.2359 9.92319 3.30781 9.56152 3.66736V6.61568C9.77852 6.47186 9.99553 6.47186 10.1402 6.47186C10.4295 6.47186 10.7189 6.61568 11.0082 6.90332C11.1529 7.11905 11.2975 7.11905 11.3699 7.11905C11.5145 7.11905 11.6592 6.97523 11.8039 6.7595V3.73927C11.6592 3.81118 11.5145 3.88309 11.3699 3.88309Z" fill="#FAFBF6"/>
<path d="M23.0156 6.54285C23.522 6.25521 24.0283 6.32712 24.4623 6.75858C24.607 6.97431 24.7516 6.97431 24.824 6.97431C24.9686 6.97431 25.1133 6.83049 25.258 6.61476V3.73836C25.1133 3.81027 24.9686 3.88218 24.824 3.88218C24.4623 3.88218 24.2453 3.66645 24.0283 3.45072L23.956 3.37881C23.8113 3.23499 23.739 3.23499 23.6666 3.23499C23.5943 3.23499 23.3773 3.3069 23.0156 3.66645V6.54285Z" fill="#FAFBF6"/>
<path d="M20.7006 3.88244C20.5559 3.88244 20.4113 3.81053 20.2666 3.73862V6.61503C20.4113 6.83076 20.5559 6.97458 20.7006 6.97458C20.7729 6.97458 20.9176 6.90267 21.0623 6.75885C21.3516 6.47121 21.5686 6.32739 21.9303 6.32739C22.1473 6.32739 22.3643 6.3993 22.5089 6.47121V3.52289C22.1473 3.16334 21.9303 3.09143 21.8579 3.09143C21.7856 3.09143 21.7133 3.09143 21.5686 3.23525L21.4963 3.30716C21.2793 3.5948 21.0623 3.88244 20.7006 3.88244Z" fill="#FAFBF6"/>
<path d="M13.106 12.5121C12.1656 12.2244 10.2849 11.2896 9.48928 9.06037C9.27228 8.48509 8.98294 8.557 9.05527 9.20419C9.19994 10.7862 10.2126 12.7278 12.3103 13.5907C13.2506 13.9503 13.757 12.7278 13.106 12.5121Z" fill="#FAFBF6"/>
<path d="M19.0365 12.5119C19.9768 12.2243 21.8575 11.2895 22.6532 9.06025C22.8702 8.48496 23.1595 8.55688 23.0872 9.20407C22.9425 10.7861 21.9298 12.7277 19.8322 13.5906C18.8918 13.9501 18.3855 12.7277 19.0365 12.5119Z" fill="#FAFBF6"/>
<path d="M18.4583 12.0806C18.603 12.0806 18.7476 12.0087 18.9646 11.9368C19.5433 11.7211 20.556 11.2177 21.3517 10.211C19.5433 9.8514 17.735 9.70758 16.1436 9.70758C14.48 9.70758 12.6716 9.92331 10.8633 10.2829C11.659 11.3615 12.744 11.8649 13.3226 12.0087C13.4673 12.0806 13.6843 12.0806 13.7566 12.1525C14.046 12.2244 14.263 12.2244 14.6246 12.0087C14.914 11.7211 14.9863 11.5772 16.216 11.5772C17.3733 11.5772 17.4456 11.7211 17.735 12.0087C17.952 12.1525 18.169 12.0806 18.4583 12.0806Z" fill="#FAFBF6"/>
<path d="M24.5347 14.8857L21.9307 19.2003C22.9433 18.7688 24.39 17.6183 24.5347 14.8857Z" fill="#FAFBF6"/>
<path d="M10.1401 19.2003L7.53613 14.8857C7.6808 17.6183 9.12747 18.7688 10.1401 19.2003Z" fill="#FAFBF6"/>
<path d="M23.3047 10.6433C22.9431 11.6501 22.2921 12.6568 21.2794 13.3759C22.0751 13.6635 23.1601 13.6635 23.8834 13.1602C23.6664 13.7355 22.8707 14.5984 22.3644 15.1017C22.2921 15.0298 22.1474 14.9579 22.0751 14.886C21.8581 14.6703 21.6411 14.886 21.7857 15.0298C21.8581 15.1017 22.0027 15.3175 22.0751 15.3175C21.9304 15.4613 21.7857 15.6051 21.7857 15.6051C21.6411 15.5332 21.5687 15.4613 21.4964 15.3894C21.2794 15.1737 21.0624 15.3894 21.2071 15.5332C21.2794 15.6051 21.4241 15.8209 21.4964 15.8928C21.3517 15.9647 21.2071 16.1085 21.0624 16.1804C20.7731 15.8208 20.4837 15.4613 20.0497 15.677C19.6157 15.8928 20.0497 16.2523 20.0497 16.6838C20.0497 18.5534 18.8924 19.2725 18.603 20.0635C18.3137 20.8546 18.0244 22.2928 17.8074 22.6523C17.5904 23.0119 16.5777 23.4433 16.1437 23.0838C15.7097 23.4433 14.697 23.0119 14.48 22.6523C14.263 22.2928 13.9737 20.8546 13.6844 20.0635C13.395 19.2725 12.2377 18.5534 12.2377 16.6838C12.2377 16.2523 12.6717 15.8928 12.2377 15.677C11.8037 15.4613 11.5143 15.8208 11.225 16.1804C11.0803 16.1085 10.9357 15.9647 10.791 15.8928C10.8633 15.8209 11.008 15.6051 11.0803 15.5332C11.225 15.3175 11.008 15.1017 10.791 15.3894C10.7187 15.4613 10.574 15.6051 10.5017 15.6051C10.5017 15.6051 10.357 15.4613 10.2123 15.3175C10.2847 15.2456 10.4293 15.0298 10.5017 15.0298C10.6463 14.8141 10.4293 14.5984 10.2123 14.886C10.14 14.9579 10.0677 15.0298 9.923 15.1017C9.34433 14.5984 8.621 13.8074 8.404 13.1602C9.12733 13.6635 10.0677 13.5916 10.9357 13.304C9.923 12.513 9.272 11.5782 8.91033 10.5714C7.31899 11.0029 5.79998 11.5782 4.57031 12.2253V16.1804C4.57031 22.5804 13.829 29.9871 16.1437 30.6343C18.5307 29.9871 27.7171 22.5804 27.7171 16.1804V12.1534C26.4151 11.6501 24.8961 11.0748 23.3047 10.6433ZM23.8834 22.5085C23.3771 22.94 23.0154 23.1557 22.6537 23.4433C21.9304 23.9467 21.7134 24.1624 21.7134 24.522L21.8581 26.0321L20.9177 25.6006C20.1944 25.313 19.8327 24.8815 19.8327 24.1624C19.7604 23.0838 20.4114 22.0051 21.6411 21.1422C21.9304 20.9265 22.2197 20.8546 22.3644 20.7107C22.5814 20.6388 22.7261 20.495 22.7984 20.4231C22.8707 20.2793 22.5814 20.1355 21.9304 19.8478C21.8581 19.8478 21.7134 19.7759 21.6411 19.704L16.0714 28.8366L10.5017 19.704C10.357 19.7759 10.2847 19.7759 10.2123 19.8478C9.56134 20.1355 9.34433 20.3512 9.34433 20.4231C9.34433 20.495 9.56134 20.5669 9.77834 20.7107C9.99534 20.7826 10.2123 20.9265 10.5017 21.1422C11.7313 21.9332 12.3823 23.0838 12.31 24.1624C12.2377 24.8815 11.876 25.313 11.225 25.6006L10.2123 26.0321L10.357 24.522C10.357 24.1624 10.14 23.9467 9.41667 23.4433C9.12733 23.2276 8.69333 22.94 8.187 22.5085C5.07665 19.9916 4.93198 16.8995 5.87232 15.5332C6.16165 15.1017 7.02966 14.1669 7.02966 14.1669L6.88499 13.9512C6.59566 13.9512 6.30632 13.6635 6.30632 13.3759C6.30632 13.0164 6.59566 12.7287 6.95732 12.7287C7.31899 12.7287 7.60833 13.0164 7.60833 13.3759C7.60833 13.4478 7.60833 13.5197 7.60833 13.5916L16.0714 27.6141L24.5344 13.5916C24.5344 13.5197 24.5344 13.4478 24.5344 13.3759C24.5344 13.0164 24.8237 12.7287 25.1854 12.7287C25.5471 12.7287 25.8364 13.0164 25.8364 13.3759C25.8364 13.6635 25.6194 13.9512 25.2577 13.9512L25.1131 14.1669C25.1131 14.1669 25.9811 15.1017 26.2704 15.5332C27.0661 16.8995 26.9937 19.9916 23.8834 22.5085Z" fill="#FAFBF6"/>
<path d="M15.9992 0.934326C7.46379 0.934326 4.42578 3.52309 4.42578 3.52309V11.1456C5.58312 10.5703 6.95746 10.0669 8.47646 9.70736C8.47646 9.56354 8.40413 9.41972 8.40413 9.2759C8.3318 8.84444 8.47647 8.5568 8.62113 8.34107C8.7658 8.19725 8.9828 8.12534 9.12747 8.12534C9.34447 8.12534 9.77847 8.19725 9.99547 8.91635C10.0678 9.06017 10.1401 9.20399 10.2125 9.34781C12.1655 8.98826 14.1908 8.77253 15.9992 8.77253C17.8075 8.77253 19.8329 8.98826 21.7859 9.34781C21.8582 9.20399 21.9305 9.06017 21.9305 8.91635C22.1475 8.26916 22.5815 8.12534 22.7985 8.12534C23.0155 8.12534 23.1602 8.19725 23.3049 8.34107C23.5219 8.5568 23.5942 8.84444 23.5219 9.2759C23.5219 9.41972 23.4495 9.56354 23.4495 9.70736C24.8962 10.0669 26.3429 10.5703 27.5002 11.1456V3.52309C27.6449 3.52309 24.6069 0.934326 15.9992 0.934326ZM12.5272 7.62197L11.3698 7.47815H11.2975L9.77847 7.26242V7.55006H9.34447H8.91047V7.26242L6.16179 7.8377V3.595L6.37879 3.52309V2.8759L6.81279 3.16354C7.10213 3.37927 7.24679 3.45118 7.31913 3.45118C7.46379 3.45118 7.53613 3.37927 7.6808 3.16354C7.6808 3.09163 7.75313 3.09163 7.75313 3.01972C7.97013 2.80399 8.1148 2.73208 8.40413 2.73208C8.69347 2.73208 8.9828 2.8759 9.34447 3.16354C9.70614 2.8759 9.99547 2.73208 10.2848 2.73208C10.5018 2.73208 10.7188 2.80399 10.9358 3.01972C10.9358 3.09163 11.0081 3.09163 11.0081 3.16354C11.1528 3.30736 11.2251 3.45118 11.3698 3.45118C11.4421 3.45118 11.6591 3.37927 11.8761 3.16354L12.2378 2.8759V3.52309L12.4548 3.595V7.62197H12.5272ZM18.6755 5.82421C18.6032 5.96803 18.4585 6.03995 18.2415 6.03995C18.2415 6.18376 18.2415 6.25567 18.1692 6.32759C18.0245 6.47141 16.7948 7.40624 16.5778 7.40624H16.5055C16.4332 7.40624 16.3608 7.40624 16.2885 7.40624C16.2162 7.62197 16.1438 7.76579 15.9992 7.76579C15.8545 7.76579 15.7822 7.62197 15.7098 7.47815C15.6375 7.47815 15.5652 7.55006 15.4928 7.55006H15.4205C15.2035 7.47815 13.9738 6.61522 13.8292 6.4714C13.8292 6.39949 13.7568 6.32758 13.7568 6.25567C13.5398 6.25567 13.3952 6.18376 13.3228 6.03995C13.2505 5.89612 13.3952 5.7523 13.5398 5.68039C13.4675 5.60848 13.3952 5.46466 13.3952 5.39275C13.3952 5.17702 13.9015 3.73882 13.9738 3.595C13.9738 3.52309 14.1185 3.52309 14.1908 3.45118C14.1185 3.30736 14.1185 3.09163 14.2632 3.01972C14.3355 2.94781 14.5525 2.94781 14.6972 3.09163C14.7695 3.01972 14.8418 2.8759 14.9142 2.8759C15.0588 2.80399 15.5652 2.80399 15.7822 2.80399C16.1438 2.80399 16.7225 2.80399 16.8672 2.8759C16.9395 2.8759 17.0118 2.94781 17.0842 3.09163C17.2288 2.94781 17.4458 2.94781 17.5182 3.01972C17.5905 3.09163 17.6628 3.23545 17.5905 3.45118C17.7352 3.45118 17.8075 3.52309 17.8798 3.595C18.0245 3.73882 18.4585 5.17702 18.4585 5.39275C18.4585 5.46466 18.3862 5.53657 18.3138 5.68039C18.6032 5.53657 18.7478 5.68039 18.6755 5.82421ZM25.9089 7.76579L23.1602 7.19051V7.47815H22.7262H22.2922V7.19051L20.7732 7.40624H20.7009L19.5435 7.55006V3.52309L19.7605 3.45118V2.80399L20.1222 3.09163C20.4115 3.30736 20.5562 3.37927 20.6285 3.37927C20.7732 3.37927 20.8455 3.30736 20.9902 3.09163C20.9902 3.01972 21.0625 3.01972 21.0625 2.94781C21.2795 2.73208 21.4242 2.66017 21.7135 2.66017C22.0029 2.66017 22.2922 2.80399 22.6539 3.09163C23.0155 2.80399 23.3049 2.66017 23.5942 2.66017C23.8112 2.66017 24.0282 2.73208 24.2452 2.94781C24.2452 3.01972 24.3175 3.01972 24.3175 3.09163C24.4622 3.23545 24.5345 3.37927 24.6792 3.37927C24.7515 3.37927 24.9685 3.30736 25.1855 3.09163L25.6195 2.80399V3.45118L25.8365 3.52309V7.76579H25.9089Z" fill="#BDBDC0"/>
<path d="M22.6535 19.5597C23.0152 19.7754 23.4492 20.0631 23.4492 20.4945C23.4492 20.926 23.0875 21.1417 22.6535 21.3575C22.4365 21.4294 22.2195 21.5732 22.0025 21.717C21.6409 21.9327 20.4112 22.8676 20.4835 24.0901C20.5559 24.5215 20.7005 24.7372 21.1345 24.953L21.0622 24.3777C21.0622 23.8024 21.5685 23.3709 22.2919 22.8676C22.5812 22.6518 23.0152 22.3642 23.4492 22.0047C26.1256 19.8474 26.4149 17.1148 25.6192 15.8923C25.5469 15.7485 25.3299 15.5327 25.1852 15.317C24.9682 17.6901 23.7385 18.9125 22.6535 19.5597Z" fill="#BDBDC0"/>
<path d="M6.88488 15.317C6.74022 15.5327 6.59555 15.7484 6.45088 15.8922C5.65521 17.1147 5.94455 19.8473 8.62089 22.0046C9.12723 22.3641 9.48889 22.6518 9.77823 22.8675C10.5016 23.3709 11.0079 23.8024 11.0079 24.3776L10.9356 24.9529C11.3696 24.7372 11.5142 24.5215 11.5866 24.09C11.7312 22.8675 10.5016 21.9327 10.0676 21.717C9.77823 21.5731 9.56123 21.4293 9.41656 21.3574C9.05489 21.1417 8.62089 20.9979 8.62089 20.4945C8.62089 20.063 8.98256 19.7754 9.41656 19.5597C8.40389 18.9125 7.10188 17.69 6.88488 15.317Z" fill="#BDBDC0"/>
</svg>
