<svg width="32" height="32" viewBox="0 0 32 32" fill="none" xmlns="http://www.w3.org/2000/svg">
<g clip-path="url(#clip0_4947_13632)">
<path d="M15.7224 32L15.4877 31.9123C15.3411 31.8539 11.7632 30.6265 8.24404 27.6164C4.02099 23.9635 3.55176 18.4402 3.55176 16.2192V2.57169L3.96233 2.36712C7.30558 0.759817 11.0594 0 15.7224 0C20.4146 0 24.1391 0.759817 27.5117 2.39635L27.9223 2.60091V16.2484C27.9223 18.4402 27.4531 23.9635 23.2007 27.6457C19.6815 30.6557 16.1036 31.9123 15.957 31.9416L15.7224 32Z" fill="#BDBDC0"/>
<path d="M15.7219 1.40271C11.4402 1.40271 8.00897 2.04563 4.95898 3.44837V12.3616C6.22003 11.631 7.2758 10.7543 8.06762 9.84837C9.00608 10.9297 10.3258 11.9525 11.8801 12.7707C13.4637 11.9525 14.7541 10.9589 15.6926 9.84837C16.631 10.9297 17.9507 11.9525 19.5051 12.7707C21.0887 11.9525 22.3791 10.9589 23.3175 9.84837C24.1094 10.7835 25.1651 11.631 26.4262 12.3616V3.4776C23.4348 2.07486 20.0036 1.40271 15.7219 1.40271ZM21.1767 8.5333C19.945 8.5333 19.0945 8.35796 17.8921 8.09495C17.6868 8.0365 17.4522 8.0365 17.2469 8.0365C16.7777 8.0365 16.3671 8.15339 16.0152 8.29951C15.9272 8.35796 15.8099 8.38718 15.7219 8.44563C15.6339 8.38718 15.5459 8.32874 15.4286 8.29951C15.0767 8.15339 14.6661 8.0365 14.1969 8.0365C13.9916 8.0365 13.7863 8.06572 13.5517 8.09495C12.3493 8.35796 11.4695 8.5333 10.2671 8.5333H9.73924L10.1205 4.44198C10.3258 4.44198 10.5017 4.44198 10.6777 4.4712L10.7657 3.18536L11.1469 3.21458H11.5575C11.9974 3.21458 12.3493 3.18536 12.7599 3.09769C13.0238 3.03924 13.2878 2.98079 13.581 2.89312C13.7277 2.8639 13.8743 2.80545 14.021 2.77623C14.5488 2.65933 15.0474 2.71778 15.4873 2.98079C15.5753 3.03924 15.6632 3.09769 15.7219 3.15613L15.9858 2.98079C16.4257 2.71778 16.9536 2.65933 17.4522 2.77623C17.6281 2.80545 17.7748 2.83467 17.9214 2.8639C18.2147 2.95157 18.4786 3.01002 18.7132 3.06846C19.2704 3.18536 19.7397 3.21458 20.3262 3.18536L20.7074 3.15613L20.7954 4.44198C20.9714 4.44198 21.1474 4.44198 21.3526 4.41276L21.7339 8.50408C21.5286 8.5333 21.3526 8.5333 21.1767 8.5333Z" fill="white"/>
<path d="M13.8748 6.92606H13.8454C12.8483 7.18907 12.1738 7.33519 11.2354 7.33519L11.4993 3.94523C11.9978 3.94523 12.4377 3.91601 12.9363 3.79912C13.2002 3.74067 13.4935 3.68222 13.7868 3.59455C13.9334 3.56533 14.0507 3.50688 14.2267 3.47765C14.5493 3.38998 14.8719 3.44843 15.1358 3.59455C15.2531 3.653 15.3118 3.71144 15.3704 3.76989V6.95528C14.8719 6.80916 14.344 6.77994 13.8748 6.92606ZM17.5993 6.92606C17.1007 6.80916 16.6021 6.80916 16.1036 6.9845V3.76989C16.1622 3.71144 16.2502 3.653 16.3382 3.59455C16.6021 3.44843 16.9247 3.38998 17.2473 3.47765C17.394 3.50688 17.5406 3.56533 17.6872 3.59455C17.9805 3.68222 18.2444 3.74067 18.5377 3.79912C19.0069 3.88679 19.4175 3.94523 19.9161 3.94523H19.9747L20.2387 7.33519C19.2709 7.33519 18.6257 7.15985 17.5993 6.92606Z" fill="white"/>
<path d="M15.751 14.1735C17.1587 13.8521 18.4197 13.3845 19.5635 12.8C17.9798 11.9817 16.6894 10.9881 15.751 9.87762C14.8125 10.9589 13.4928 11.9817 11.9092 12.8C13.0529 13.3845 14.3433 13.8521 15.751 14.1735Z" fill="#BDBDC0"/>
<path d="M8.09668 14.1443C9.29908 14.4073 10.5895 14.5826 11.9385 14.5826C13.2875 14.5826 14.5486 14.4365 15.751 14.1735C14.3433 13.852 13.0822 13.3845 11.9385 12.8C10.7654 13.3845 9.47504 13.852 8.09668 14.1443Z" fill="#BDBDC0"/>
<path d="M15.7217 14.1735C16.9241 14.4365 18.1851 14.5826 19.5342 14.5826C20.8832 14.5826 22.1736 14.4365 23.376 14.1443C21.9683 13.8228 20.7072 13.3552 19.5635 12.7708C18.4197 13.3845 17.1294 13.852 15.7217 14.1735Z" fill="#BDBDC0"/>
<path d="M4.95898 14.5534C6.04407 14.495 7.09984 14.3781 8.06762 14.1443C6.9532 13.8813 5.89744 13.5306 4.95898 13.0922V14.5534Z" fill="#BDBDC0"/>
<path d="M4.95898 12.3909V13.1215C5.92677 13.5598 6.9532 13.9105 8.06762 14.1735C9.44598 13.8521 10.7364 13.3845 11.8801 12.8C10.2965 11.9817 9.00608 10.9881 8.06762 9.87762C7.2758 10.7836 6.22003 11.6603 4.95898 12.3909Z" fill="#BDBDC0"/>
<path d="M26.4846 13.1215C25.5168 13.5598 24.4904 13.9105 23.376 14.1735C24.3731 14.4073 25.3995 14.5242 26.4846 14.5826V13.1215Z" fill="#BDBDC0"/>
<path d="M26.4846 13.1215V12.3909C25.2235 11.6603 24.1678 10.7836 23.376 9.87762C22.4375 10.9589 21.1178 11.9817 19.5635 12.8C20.7072 13.3845 21.9976 13.8521 23.376 14.1735C24.4904 13.9105 25.5461 13.5598 26.4846 13.1215Z" fill="#BDBDC0"/>
<path d="M25.1945 16.5114C24.6373 16.1607 24.0801 15.8101 23.3762 15.8101C22.6724 15.8101 22.1445 16.1607 21.558 16.5114C20.9714 16.8913 20.3556 17.2712 19.5344 17.2712C18.7133 17.2712 18.0974 16.8913 17.5109 16.5114C16.9537 16.1607 16.3964 15.8101 15.6926 15.8101C14.9888 15.8101 14.4609 16.1607 13.8743 16.5114C13.2878 16.8913 12.672 17.2712 11.8508 17.2712C11.0297 17.2712 10.4138 16.8913 9.82726 16.5114C9.27005 16.1607 8.71284 15.8101 8.009 15.8101C7.30515 15.8101 6.77727 16.1607 6.19074 16.5114C5.78016 16.7744 5.39892 17.0082 4.92969 17.1544C4.95901 17.6804 5.01767 18.3233 5.13497 18.9954C5.45757 18.8493 5.78016 18.674 6.07343 18.4694C6.63064 18.1187 7.2465 17.7388 8.009 17.7388C8.77149 17.7388 9.35803 18.1187 9.94456 18.4694C10.5311 18.8493 11.0883 19.2 11.8508 19.2C12.6133 19.2 13.1705 18.8493 13.757 18.4694C14.3142 18.1187 14.9301 17.7388 15.6926 17.7388C16.4551 17.7388 17.0416 18.1187 17.6282 18.4694C18.2147 18.8493 18.7719 19.2 19.5344 19.2C20.2969 19.2 20.8541 18.8493 21.4407 18.4694C21.9979 18.1187 22.6137 17.7388 23.3762 17.7388C24.1387 17.7388 24.7252 18.1187 25.3118 18.4694C25.605 18.674 25.9276 18.8493 26.2502 18.9954C26.3675 18.2941 26.4262 17.6804 26.4555 17.1544C25.9863 17.0082 25.5757 16.7452 25.1945 16.5114Z" fill="white"/>
<path d="M16.8368 30.042V29.1946L15.8397 30.1882L14.9892 29.3699V28.0548L15.8397 28.8731L16.8368 27.8795V26.4767L15.8397 27.4704L14.9892 26.6521V25.3078L15.8397 26.1261L16.8368 25.1325V23.6128L15.8397 24.6064L14.9892 23.8174V22.5608L15.8397 23.3206L17.2767 21.9178L15.7517 20.632L14.0801 22.064V29.7498C14.8426 30.1297 15.4291 30.3635 15.7517 30.4804C15.957 30.422 16.3382 30.2466 16.8368 30.042ZM13.0243 26.6521L12.0272 27.6749L11.1767 26.7982V25.4539L12.0272 26.3014L13.0243 25.2786V23.7005L12.0272 24.6941L11.1767 23.8466V22.5023L12.0272 23.2621L13.4642 21.8594L11.9392 20.5735L10.2676 22.0055V27.3242C11.2354 28.0548 12.2032 28.6685 13.0243 29.1361V26.6521ZM19.6522 23.3206L21.0892 21.9178L19.5642 20.632L17.8925 22.064V29.516C18.7137 29.0777 19.6521 28.5224 20.6493 27.821V26.6521L19.6522 27.6749L18.8017 26.7982V25.4539L19.6522 26.3014L20.6493 25.2786V23.7005L19.6522 24.6941L18.8017 23.8758V22.5315L19.6522 23.3206ZM23.4646 23.3206L24.9016 21.9178L23.3766 20.632L21.705 22.064V27.0028C21.881 26.8567 22.0863 26.7105 22.2622 26.5352C23.1714 25.7462 23.9045 24.8402 24.4617 23.9343V23.7297L23.4646 24.7233L22.6142 23.8758V22.5315L23.4646 23.3206ZM8.18539 23.3206L9.6224 21.9178L8.09741 20.632L6.42578 22.064V22.8822C7.04164 24.1681 7.92145 25.4539 9.1825 26.5352V23.7005L8.18539 24.6941L7.33491 23.8466V22.5023L8.18539 23.3206Z" fill="white"/>
</g>
<defs>
<clipPath id="clip0_4947_13632">
<rect width="25" height="32" fill="white" transform="translate(3.5)"/>
</clipPath>
</defs>
</svg>
