<svg width="32" height="16" viewBox="0 0 32 16" fill="none" xmlns="http://www.w3.org/2000/svg">
<g clip-path="url(#clip0_4958_23749)">
<path d="M17.1473 10.2033C17.195 10.2453 17.2463 10.2835 17.3013 10.3217C17.7155 10.6196 18.4706 10.8945 19.5739 11.1504L20.6955 11.4062C21.3517 11.5513 21.8318 11.7193 22.1361 11.9103C22.4367 12.105 22.5906 12.38 22.5906 12.7389C22.5906 13.3499 22.2827 13.7661 21.6632 13.9914C21.337 14.1098 20.9155 14.1671 20.3913 14.1671C19.5189 14.1671 18.9068 13.9456 18.5475 13.4988C18.3496 13.2544 18.2213 12.8878 18.1517 12.3914H16.0843C16.0843 13.5141 16.4765 14.3962 17.2573 15.0377C18.038 15.6792 19.112 16 20.4756 16C21.8392 16 22.8435 15.6754 23.5766 15.0224C24.2511 14.4229 24.614 13.6821 24.6653 12.8V15.8396H26.9599V11.3527H31.3255V9.4969H26.9599V6.98807H32V4.97948H24.669V12.3761C24.6286 11.5093 24.3244 10.8372 23.7489 10.3637C23.3127 10.0048 22.6786 9.75656 21.9565 9.58091C21.5496 9.47781 20.4683 9.21814 20.1384 9.13413C19.8085 9.05012 19.1304 8.88974 18.7601 8.68735C18.3899 8.48496 18.2543 8.16802 18.2543 7.82053C18.2543 7.36993 18.4412 7.07208 18.7821 6.8315C19.123 6.59093 19.6142 6.49165 20.1384 6.49165C21.2527 6.49165 22.1984 6.9117 22.2644 8.14511H24.3464C24.3097 6.99952 23.8992 6.12124 23.1184 5.5179C22.3377 4.91456 21.3956 4.61289 20.2887 4.61289C18.9654 4.61289 17.9611 4.93365 17.2793 5.57136C16.8577 5.96468 16.5682 6.41909 16.4069 6.93843C16.4069 6.93843 16.3775 7.03007 16.3556 7.1179C16.3336 7.20573 16.3189 7.2821 16.3189 7.2821C16.066 8.52697 15.2962 9.37088 14.0096 9.37088C11.9496 9.37088 11.1762 7.54559 11.1762 5.73556C11.1762 3.83389 11.9496 2.00859 14.0096 2.00859C15.1496 2.00859 16.143 2.82959 16.2859 3.91026H18.5072C18.2286 1.40143 16.3006 0 14.0096 0C10.9306 0 9.06483 2.28353 8.89622 5.2926V0.263485H6.6016V7.01862C6.6016 8.63007 6.07743 9.37852 4.43895 9.37852C2.58419 9.37852 2.29095 8.20621 2.29095 7.01862V0.263485H0V7.01862C0 9.97041 1.63482 11.3833 4.43895 11.3833C7.24307 11.3833 8.89255 9.95513 8.89255 7.01862V6.17088C9.0575 9.09976 10.9269 11.3833 14.006 11.3833C15.2706 11.3833 16.3482 10.9594 17.1436 10.1995L17.1473 10.2033Z" fill="#BDBDC0"/>
</g>
<defs>
<clipPath id="clip0_4958_23749">
<rect width="32" height="16" fill="white"/>
</clipPath>
</defs>
</svg>
